<svg xmlns="http://www.w3.org/2000/svg" width="1440" viewBox="0 0 1440 810" height="810" version="1.0"><defs><clipPath id="a"><path d="M 380.964844 303.15625 L 584.964844 303.15625 L 584.964844 507.15625 L 380.964844 507.15625 Z M 380.964844 303.15625"/></clipPath><clipPath id="b"><path d="M 618.15625 303.15625 L 822.15625 303.15625 L 822.15625 507.15625 L 618.15625 507.15625 Z M 618.15625 303.15625"/></clipPath><clipPath id="c"><path d="M 855.347656 303.15625 L 1059.347656 303.15625 L 1059.347656 507.15625 L 855.347656 507.15625 Z M 855.347656 303.15625"/></clipPath></defs><g clip-path="url(#a)"><path fill="#FFCC4D" d="M 584.964844 405.15625 C 584.964844 406.828125 584.925781 408.496094 584.84375 410.164062 C 584.761719 411.832031 584.640625 413.496094 584.476562 415.15625 C 584.3125 416.816406 584.105469 418.472656 583.863281 420.125 C 583.617188 421.777344 583.332031 423.421875 583.007812 425.058594 C 582.679688 426.695312 582.316406 428.324219 581.910156 429.941406 C 581.503906 431.5625 581.058594 433.167969 580.574219 434.765625 C 580.089844 436.363281 579.566406 437.949219 579.003906 439.519531 C 578.441406 441.09375 577.839844 442.648438 577.203125 444.191406 C 576.5625 445.734375 575.886719 447.257812 575.171875 448.769531 C 574.460938 450.277344 573.710938 451.769531 572.921875 453.242188 C 572.136719 454.710938 571.3125 456.164062 570.453125 457.597656 C 569.597656 459.027344 568.703125 460.4375 567.777344 461.824219 C 566.847656 463.214844 565.886719 464.578125 564.894531 465.917969 C 563.898438 467.261719 562.871094 468.574219 561.8125 469.867188 C 560.753906 471.15625 559.664062 472.421875 558.542969 473.65625 C 557.421875 474.894531 556.273438 476.101562 555.089844 477.28125 C 553.910156 478.464844 552.703125 479.613281 551.464844 480.734375 C 550.226562 481.855469 548.964844 482.945312 547.675781 484.003906 C 546.382812 485.0625 545.070312 486.089844 543.726562 487.085938 C 542.386719 488.078125 541.023438 489.039062 539.632812 489.96875 C 538.246094 490.894531 536.835938 491.789062 535.40625 492.644531 C 533.972656 493.503906 532.519531 494.328125 531.046875 495.113281 C 529.578125 495.902344 528.085938 496.652344 526.578125 497.363281 C 525.066406 498.078125 523.542969 498.753906 522 499.394531 C 520.457031 500.03125 518.902344 500.632812 517.328125 501.195312 C 515.757812 501.757812 514.171875 502.28125 512.574219 502.765625 C 510.976562 503.25 509.371094 503.695312 507.75 504.101562 C 506.132812 504.507812 504.503906 504.871094 502.867188 505.199219 C 501.226562 505.523438 499.585938 505.808594 497.933594 506.054688 C 496.28125 506.300781 494.625 506.503906 492.964844 506.667969 C 491.304688 506.832031 489.636719 506.953125 487.972656 507.035156 C 486.304688 507.117188 484.636719 507.15625 482.964844 507.15625 C 481.296875 507.15625 479.628906 507.117188 477.960938 507.035156 C 476.292969 506.953125 474.628906 506.832031 472.96875 506.667969 C 471.308594 506.503906 469.652344 506.300781 468 506.054688 C 466.347656 505.808594 464.703125 505.523438 463.066406 505.199219 C 461.429688 504.871094 459.800781 504.507812 458.183594 504.101562 C 456.5625 503.695312 454.953125 503.25 453.355469 502.765625 C 451.761719 502.28125 450.175781 501.757812 448.605469 501.195312 C 447.03125 500.632812 445.476562 500.03125 443.933594 499.394531 C 442.390625 498.753906 440.863281 498.078125 439.355469 497.363281 C 437.847656 496.652344 436.355469 495.902344 434.882812 495.113281 C 433.410156 494.328125 431.960938 493.503906 430.527344 492.644531 C 429.097656 491.789062 427.6875 490.894531 426.296875 489.96875 C 424.910156 489.039062 423.546875 488.078125 422.203125 487.085938 C 420.863281 486.089844 419.546875 485.0625 418.257812 484.003906 C 416.96875 482.945312 415.703125 481.855469 414.46875 480.734375 C 413.230469 479.613281 412.023438 478.464844 410.839844 477.28125 C 409.660156 476.101562 408.511719 474.894531 407.390625 473.65625 C 406.269531 472.421875 405.179688 471.15625 404.121094 469.867188 C 403.058594 468.574219 402.035156 467.261719 401.039062 465.917969 C 400.042969 464.578125 399.082031 463.214844 398.15625 461.824219 C 397.230469 460.4375 396.335938 459.027344 395.476562 457.597656 C 394.621094 456.164062 393.796875 454.710938 393.011719 453.242188 C 392.222656 451.769531 391.472656 450.277344 390.757812 448.769531 C 390.046875 447.257812 389.371094 445.734375 388.730469 444.191406 C 388.089844 442.648438 387.492188 441.09375 386.929688 439.519531 C 386.367188 437.949219 385.84375 436.363281 385.359375 434.765625 C 384.875 433.167969 384.429688 431.5625 384.023438 429.941406 C 383.617188 428.324219 383.25 426.695312 382.925781 425.058594 C 382.601562 423.421875 382.316406 421.777344 382.070312 420.125 C 381.824219 418.472656 381.621094 416.816406 381.457031 415.15625 C 381.292969 413.496094 381.171875 411.832031 381.089844 410.164062 C 381.007812 408.496094 380.964844 406.828125 380.964844 405.15625 C 380.964844 403.488281 381.007812 401.820312 381.089844 400.152344 C 381.171875 398.484375 381.292969 396.820312 381.457031 395.160156 C 381.621094 393.5 381.824219 391.84375 382.070312 390.191406 C 382.316406 388.539062 382.601562 386.894531 382.925781 385.257812 C 383.25 383.621094 383.617188 381.992188 384.023438 380.375 C 384.429688 378.753906 384.875 377.144531 385.359375 375.550781 C 385.84375 373.953125 386.367188 372.367188 386.929688 370.796875 C 387.492188 369.222656 388.089844 367.667969 388.730469 366.125 C 389.371094 364.582031 390.046875 363.054688 390.757812 361.546875 C 391.472656 360.039062 392.222656 358.546875 393.011719 357.074219 C 393.796875 355.601562 394.621094 354.152344 395.476562 352.71875 C 396.335938 351.289062 397.230469 349.878906 398.15625 348.488281 C 399.082031 347.101562 400.042969 345.738281 401.039062 344.398438 C 402.035156 343.054688 403.058594 341.742188 404.121094 340.449219 C 405.179688 339.160156 406.269531 337.894531 407.390625 336.660156 C 408.511719 335.421875 409.660156 334.214844 410.839844 333.03125 C 412.023438 331.851562 413.230469 330.703125 414.46875 329.582031 C 415.703125 328.460938 416.96875 327.371094 418.257812 326.3125 C 419.546875 325.25 420.863281 324.226562 422.203125 323.230469 C 423.546875 322.238281 424.910156 321.277344 426.296875 320.347656 C 427.6875 319.421875 429.097656 318.527344 430.527344 317.667969 C 431.960938 316.8125 433.410156 315.988281 434.882812 315.203125 C 436.355469 314.414062 437.847656 313.664062 439.355469 312.949219 C 440.863281 312.238281 442.390625 311.5625 443.933594 310.921875 C 445.476562 310.285156 447.03125 309.683594 448.605469 309.121094 C 450.175781 308.558594 451.761719 308.035156 453.355469 307.550781 C 454.953125 307.066406 456.5625 306.621094 458.183594 306.214844 C 459.800781 305.808594 461.429688 305.445312 463.066406 305.117188 C 464.703125 304.792969 466.347656 304.507812 468 304.261719 C 469.652344 304.015625 471.308594 303.8125 472.96875 303.648438 C 474.628906 303.484375 476.292969 303.363281 477.960938 303.28125 C 479.628906 303.199219 481.296875 303.15625 482.964844 303.15625 C 484.636719 303.15625 486.304688 303.199219 487.972656 303.28125 C 489.636719 303.363281 491.304688 303.484375 492.964844 303.648438 C 494.625 303.8125 496.28125 304.015625 497.933594 304.261719 C 499.585938 304.507812 501.226562 304.792969 502.867188 305.117188 C 504.503906 305.445312 506.132812 305.808594 507.75 306.214844 C 509.371094 306.621094 510.976562 307.066406 512.574219 307.550781 C 514.171875 308.035156 515.757812 308.558594 517.328125 309.121094 C 518.902344 309.683594 520.457031 310.285156 522 310.921875 C 523.542969 311.5625 525.066406 312.238281 526.578125 312.949219 C 528.085938 313.664062 529.578125 314.414062 531.046875 315.203125 C 532.519531 315.988281 533.972656 316.8125 535.40625 317.667969 C 536.835938 318.527344 538.246094 319.421875 539.632812 320.347656 C 541.023438 321.277344 542.386719 322.238281 543.726562 323.230469 C 545.070312 324.226562 546.382812 325.25 547.675781 326.3125 C 548.964844 327.371094 550.226562 328.460938 551.464844 329.582031 C 552.703125 330.703125 553.910156 331.851562 555.089844 333.03125 C 556.273438 334.214844 557.421875 335.421875 558.542969 336.660156 C 559.664062 337.894531 560.753906 339.160156 561.8125 340.449219 C 562.871094 341.742188 563.898438 343.054688 564.894531 344.398438 C 565.886719 345.738281 566.847656 347.101562 567.777344 348.488281 C 568.703125 349.878906 569.597656 351.289062 570.453125 352.71875 C 571.3125 354.152344 572.136719 355.601562 572.921875 357.074219 C 573.710938 358.546875 574.460938 360.039062 575.171875 361.546875 C 575.886719 363.054688 576.5625 364.582031 577.203125 366.125 C 577.839844 367.667969 578.441406 369.222656 579.003906 370.796875 C 579.566406 372.367188 580.089844 373.953125 580.574219 375.550781 C 581.058594 377.144531 581.503906 378.753906 581.910156 380.375 C 582.316406 381.992188 582.679688 383.621094 583.007812 385.257812 C 583.332031 386.894531 583.617188 388.539062 583.863281 390.191406 C 584.105469 391.84375 584.3125 393.5 584.476562 395.160156 C 584.640625 396.820312 584.761719 398.484375 584.84375 400.152344 C 584.925781 401.820312 584.964844 403.488281 584.964844 405.15625 Z M 584.964844 405.15625"/></g><path fill="#F4F7F9" d="M 550.964844 379.65625 C 550.964844 380.679688 550.917969 381.695312 550.816406 382.710938 C 550.714844 383.730469 550.566406 384.738281 550.367188 385.738281 C 550.167969 386.738281 549.921875 387.726562 549.625 388.707031 C 549.328125 389.683594 548.984375 390.640625 548.59375 391.585938 C 548.203125 392.527344 547.765625 393.449219 547.285156 394.351562 C 546.804688 395.25 546.28125 396.125 545.714844 396.972656 C 545.148438 397.820312 544.539062 398.640625 543.890625 399.429688 C 543.246094 400.21875 542.558594 400.972656 541.835938 401.695312 C 541.117188 402.417969 540.359375 403.101562 539.570312 403.75 C 538.78125 404.398438 537.964844 405.003906 537.113281 405.570312 C 536.265625 406.140625 535.390625 406.664062 534.492188 407.144531 C 533.589844 407.625 532.667969 408.0625 531.726562 408.453125 C 530.785156 408.84375 529.824219 409.1875 528.847656 409.484375 C 527.871094 409.777344 526.882812 410.027344 525.878906 410.226562 C 524.878906 410.425781 523.871094 410.574219 522.855469 410.675781 C 521.839844 410.773438 520.820312 410.824219 519.800781 410.824219 C 518.777344 410.824219 517.761719 410.773438 516.746094 410.675781 C 515.730469 410.574219 514.71875 410.425781 513.71875 410.226562 C 512.71875 410.027344 511.730469 409.777344 510.753906 409.484375 C 509.777344 409.1875 508.816406 408.84375 507.871094 408.453125 C 506.929688 408.0625 506.007812 407.625 505.109375 407.144531 C 504.207031 406.664062 503.332031 406.140625 502.484375 405.570312 C 501.636719 405.003906 500.816406 404.398438 500.027344 403.75 C 499.238281 403.101562 498.484375 402.417969 497.761719 401.695312 C 497.039062 400.972656 496.355469 400.21875 495.707031 399.429688 C 495.058594 398.640625 494.453125 397.820312 493.886719 396.972656 C 493.320312 396.125 492.792969 395.25 492.3125 394.351562 C 491.832031 393.449219 491.394531 392.527344 491.003906 391.585938 C 490.613281 390.640625 490.269531 389.683594 489.976562 388.707031 C 489.679688 387.726562 489.429688 386.738281 489.230469 385.738281 C 489.03125 384.738281 488.882812 383.730469 488.78125 382.710938 C 488.683594 381.695312 488.632812 380.679688 488.632812 379.65625 C 488.632812 378.636719 488.683594 377.617188 488.78125 376.601562 C 488.882812 375.585938 489.03125 374.578125 489.230469 373.578125 C 489.429688 372.578125 489.679688 371.585938 489.976562 370.609375 C 490.269531 369.632812 490.613281 368.675781 491.003906 367.730469 C 491.394531 366.789062 491.832031 365.867188 492.3125 364.964844 C 492.792969 364.066406 493.320312 363.191406 493.886719 362.34375 C 494.453125 361.492188 495.058594 360.675781 495.707031 359.886719 C 496.355469 359.097656 497.039062 358.339844 497.761719 357.621094 C 498.484375 356.898438 499.238281 356.214844 500.027344 355.566406 C 500.816406 354.917969 501.636719 354.3125 502.484375 353.742188 C 503.332031 353.175781 504.207031 352.652344 505.109375 352.171875 C 506.007812 351.691406 506.929688 351.253906 507.871094 350.863281 C 508.816406 350.472656 509.777344 350.128906 510.753906 349.832031 C 511.730469 349.535156 512.71875 349.289062 513.71875 349.089844 C 514.71875 348.890625 515.730469 348.742188 516.746094 348.640625 C 517.761719 348.542969 518.777344 348.492188 519.800781 348.492188 C 520.820312 348.492188 521.839844 348.542969 522.855469 348.640625 C 523.871094 348.742188 524.878906 348.890625 525.878906 349.089844 C 526.882812 349.289062 527.871094 349.535156 528.847656 349.832031 C 529.824219 350.128906 530.785156 350.472656 531.726562 350.863281 C 532.667969 351.253906 533.589844 351.691406 534.492188 352.171875 C 535.390625 352.652344 536.265625 353.175781 537.113281 353.742188 C 537.964844 354.3125 538.78125 354.917969 539.570312 355.566406 C 540.359375 356.214844 541.117188 356.898438 541.835938 357.621094 C 542.558594 358.339844 543.246094 359.097656 543.890625 359.886719 C 544.539062 360.675781 545.148438 361.492188 545.714844 362.34375 C 546.28125 363.191406 546.804688 364.066406 547.285156 364.964844 C 547.765625 365.867188 548.203125 366.789062 548.59375 367.730469 C 548.984375 368.675781 549.328125 369.632812 549.625 370.609375 C 549.921875 371.585938 550.167969 372.578125 550.367188 373.578125 C 550.566406 374.578125 550.714844 375.585938 550.816406 376.601562 C 550.917969 377.617188 550.964844 378.636719 550.964844 379.65625 Z M 550.964844 379.65625"/><path fill="#F4F7F9" d="M 477.300781 379.65625 C 477.300781 380.679688 477.25 381.695312 477.148438 382.710938 C 477.050781 383.730469 476.898438 384.738281 476.699219 385.738281 C 476.5 386.738281 476.253906 387.726562 475.957031 388.707031 C 475.660156 389.683594 475.316406 390.640625 474.925781 391.585938 C 474.535156 392.527344 474.101562 393.449219 473.621094 394.351562 C 473.136719 395.25 472.613281 396.125 472.046875 396.972656 C 471.480469 397.820312 470.871094 398.640625 470.226562 399.429688 C 469.578125 400.21875 468.894531 400.972656 468.171875 401.695312 C 467.449219 402.417969 466.695312 403.101562 465.90625 403.75 C 465.117188 404.398438 464.296875 405.003906 463.449219 405.570312 C 462.597656 406.140625 461.726562 406.664062 460.824219 407.144531 C 459.925781 407.625 459.003906 408.0625 458.058594 408.453125 C 457.117188 408.84375 456.15625 409.1875 455.179688 409.484375 C 454.203125 409.777344 453.214844 410.027344 452.214844 410.226562 C 451.210938 410.425781 450.203125 410.574219 449.1875 410.675781 C 448.171875 410.773438 447.152344 410.824219 446.132812 410.824219 C 445.113281 410.824219 444.09375 410.773438 443.078125 410.675781 C 442.0625 410.574219 441.054688 410.425781 440.050781 410.226562 C 439.050781 410.027344 438.0625 409.777344 437.085938 409.484375 C 436.109375 409.1875 435.148438 408.84375 434.207031 408.453125 C 433.261719 408.0625 432.339844 407.625 431.441406 407.144531 C 430.539062 406.664062 429.667969 406.140625 428.816406 405.570312 C 427.96875 405.003906 427.148438 404.398438 426.359375 403.75 C 425.570312 403.101562 424.816406 402.417969 424.09375 401.695312 C 423.375 400.972656 422.6875 400.21875 422.039062 399.429688 C 421.394531 398.640625 420.785156 397.820312 420.21875 396.972656 C 419.652344 396.125 419.128906 395.25 418.644531 394.351562 C 418.164062 393.449219 417.730469 392.527344 417.339844 391.585938 C 416.949219 390.640625 416.605469 389.683594 416.308594 388.707031 C 416.011719 387.726562 415.765625 386.738281 415.566406 385.738281 C 415.367188 384.738281 415.214844 383.730469 415.117188 382.710938 C 415.015625 381.695312 414.964844 380.679688 414.964844 379.65625 C 414.964844 378.636719 415.015625 377.617188 415.117188 376.601562 C 415.214844 375.585938 415.367188 374.578125 415.566406 373.578125 C 415.765625 372.578125 416.011719 371.585938 416.308594 370.609375 C 416.605469 369.632812 416.949219 368.675781 417.339844 367.730469 C 417.730469 366.789062 418.164062 365.867188 418.644531 364.964844 C 419.128906 364.066406 419.652344 363.191406 420.21875 362.34375 C 420.785156 361.492188 421.394531 360.675781 422.039062 359.886719 C 422.6875 359.097656 423.375 358.339844 424.09375 357.621094 C 424.816406 356.898438 425.570312 356.214844 426.359375 355.566406 C 427.148438 354.917969 427.96875 354.3125 428.816406 353.742188 C 429.667969 353.175781 430.539062 352.652344 431.441406 352.171875 C 432.339844 351.691406 433.261719 351.253906 434.207031 350.863281 C 435.148438 350.472656 436.109375 350.128906 437.085938 349.832031 C 438.0625 349.535156 439.050781 349.289062 440.050781 349.089844 C 441.054688 348.890625 442.0625 348.742188 443.078125 348.640625 C 444.09375 348.542969 445.113281 348.492188 446.132812 348.492188 C 447.152344 348.492188 448.171875 348.542969 449.1875 348.640625 C 450.203125 348.742188 451.210938 348.890625 452.214844 349.089844 C 453.214844 349.289062 454.203125 349.535156 455.179688 349.832031 C 456.15625 350.128906 457.117188 350.472656 458.058594 350.863281 C 459.003906 351.253906 459.925781 351.691406 460.824219 352.171875 C 461.726562 352.652344 462.597656 353.175781 463.449219 353.742188 C 464.296875 354.3125 465.117188 354.917969 465.90625 355.566406 C 466.695312 356.214844 467.449219 356.898438 468.171875 357.621094 C 468.894531 358.339844 469.578125 359.097656 470.226562 359.886719 C 470.871094 360.675781 471.480469 361.492188 472.046875 362.34375 C 472.613281 363.191406 473.136719 364.066406 473.621094 364.964844 C 474.101562 365.867188 474.535156 366.789062 474.925781 367.730469 C 475.316406 368.675781 475.660156 369.632812 475.957031 370.609375 C 476.253906 371.585938 476.5 372.578125 476.699219 373.578125 C 476.898438 374.578125 477.050781 375.585938 477.148438 376.601562 C 477.25 377.617188 477.300781 378.636719 477.300781 379.65625 Z M 477.300781 379.65625"/><path fill="#65471B" d="M 511.917969 435.894531 C 496.261719 432.113281 461.636719 435.554688 448.664062 460.855469 C 448.203125 461.75 448.4375 462.855469 449.234375 463.484375 C 449.617188 463.796875 450.089844 463.949219 450.558594 463.949219 C 451.039062 463.949219 451.527344 463.785156 451.925781 463.457031 C 469.398438 448.835938 494.0625 448.835938 508.796875 448.835938 C 518.058594 448.835938 523.164062 448.835938 523.164062 444.824219 C 523.164062 440.8125 519.171875 437.640625 511.917969 435.894531 Z M 440.464844 376.824219 C 448.292969 376.824219 454.632812 370.484375 454.632812 362.65625 C 454.632812 355.5625 449.402344 349.738281 442.597656 348.707031 C 438.121094 349.210938 433.949219 350.679688 430.253906 352.878906 C 427.816406 355.421875 426.300781 358.855469 426.300781 362.65625 C 426.300781 370.484375 432.640625 376.824219 440.464844 376.824219 Z M 514.132812 376.824219 C 521.957031 376.824219 528.300781 370.484375 528.300781 362.65625 C 528.300781 355.5625 523.070312 349.738281 516.261719 348.707031 C 511.792969 349.210938 507.617188 350.679688 503.925781 352.878906 C 501.484375 355.421875 499.964844 358.855469 499.964844 362.65625 C 499.964844 370.484375 506.308594 376.824219 514.132812 376.824219 Z M 514.132812 376.824219"/><g clip-path="url(#b)"><path fill="#FFCC4D" d="M 618.15625 405.15625 C 618.15625 348.824219 663.824219 303.15625 720.15625 303.15625 C 776.488281 303.15625 822.15625 348.824219 822.15625 405.15625 C 822.15625 461.492188 776.488281 507.15625 720.15625 507.15625 C 663.824219 507.15625 618.15625 461.492188 618.15625 405.15625"/></g><path fill="#664500" d="M 667.257812 376.09375 C 668.269531 377.007812 669.773438 377.0625 670.859375 376.257812 C 671.078125 376.09375 693.082031 359.824219 720.15625 359.824219 C 747.164062 359.824219 769.242188 376.09375 769.457031 376.257812 C 770.539062 377.0625 772.046875 376.996094 773.054688 376.09375 C 774.058594 375.1875 774.285156 373.691406 773.589844 372.535156 C 772.859375 371.324219 755.359375 342.824219 720.15625 342.824219 C 684.957031 342.824219 667.453125 371.316406 666.726562 372.535156 C 666.03125 373.695312 666.25 375.1875 667.257812 376.09375 Z M 667.257812 376.09375"/><path fill="#664500" d="M 697.492188 424.992188 C 697.492188 425.640625 697.46875 426.289062 697.421875 426.933594 C 697.378906 427.582031 697.308594 428.222656 697.21875 428.859375 C 697.128906 429.496094 697.015625 430.128906 696.882812 430.75 C 696.746094 431.371094 696.589844 431.980469 696.414062 432.582031 C 696.234375 433.179688 696.035156 433.769531 695.816406 434.339844 C 695.597656 434.914062 695.359375 435.46875 695.101562 436.011719 C 694.84375 436.550781 694.570312 437.070312 694.273438 437.574219 C 693.980469 438.074219 693.667969 438.554688 693.339844 439.015625 C 693.011719 439.476562 692.671875 439.910156 692.3125 440.324219 C 691.953125 440.734375 691.582031 441.121094 691.195312 441.480469 C 690.808594 441.84375 690.410156 442.175781 690.003906 442.484375 C 689.59375 442.789062 689.175781 443.066406 688.746094 443.316406 C 688.316406 443.5625 687.878906 443.78125 687.4375 443.96875 C 686.992188 444.160156 686.542969 444.316406 686.089844 444.445312 C 685.632812 444.570312 685.175781 444.664062 684.714844 444.730469 C 684.25 444.792969 683.789062 444.824219 683.324219 444.824219 C 682.859375 444.824219 682.398438 444.792969 681.9375 444.730469 C 681.472656 444.664062 681.015625 444.570312 680.558594 444.445312 C 680.105469 444.316406 679.65625 444.160156 679.210938 443.96875 C 678.769531 443.78125 678.332031 443.5625 677.902344 443.316406 C 677.472656 443.066406 677.054688 442.789062 676.644531 442.484375 C 676.238281 442.175781 675.839844 441.84375 675.453125 441.480469 C 675.066406 441.121094 674.695312 440.734375 674.335938 440.324219 C 673.976562 439.910156 673.636719 439.476562 673.308594 439.015625 C 672.980469 438.554688 672.667969 438.074219 672.375 437.574219 C 672.078125 437.070312 671.804688 436.550781 671.546875 436.011719 C 671.289062 435.46875 671.050781 434.914062 670.832031 434.339844 C 670.613281 433.769531 670.414062 433.179688 670.234375 432.582031 C 670.058594 431.980469 669.902344 431.371094 669.769531 430.75 C 669.632812 430.128906 669.519531 429.496094 669.429688 428.859375 C 669.339844 428.222656 669.269531 427.582031 669.226562 426.933594 C 669.179688 426.289062 669.15625 425.640625 669.15625 424.992188 C 669.15625 424.339844 669.179688 423.695312 669.226562 423.046875 C 669.269531 422.402344 669.339844 421.757812 669.429688 421.121094 C 669.519531 420.484375 669.632812 419.855469 669.769531 419.234375 C 669.902344 418.613281 670.058594 418 670.234375 417.402344 C 670.414062 416.800781 670.613281 416.214844 670.832031 415.640625 C 671.050781 415.070312 671.289062 414.511719 671.546875 413.972656 C 671.804688 413.433594 672.078125 412.910156 672.375 412.410156 C 672.667969 411.90625 672.980469 411.425781 673.308594 410.96875 C 673.636719 410.507812 673.976562 410.070312 674.335938 409.660156 C 674.695312 409.246094 675.066406 408.863281 675.453125 408.5 C 675.839844 408.140625 676.238281 407.804688 676.644531 407.5 C 677.054688 407.195312 677.472656 406.917969 677.902344 406.667969 C 678.332031 406.417969 678.769531 406.199219 679.210938 406.011719 C 679.65625 405.824219 680.105469 405.664062 680.558594 405.539062 C 681.015625 405.414062 681.472656 405.316406 681.9375 405.253906 C 682.398438 405.191406 682.859375 405.15625 683.324219 405.15625 C 683.789062 405.15625 684.25 405.191406 684.714844 405.253906 C 685.175781 405.316406 685.632812 405.414062 686.089844 405.539062 C 686.542969 405.664062 686.992188 405.824219 687.4375 406.011719 C 687.878906 406.199219 688.316406 406.417969 688.746094 406.667969 C 689.175781 406.917969 689.59375 407.195312 690.003906 407.5 C 690.410156 407.804688 690.808594 408.140625 691.195312 408.5 C 691.582031 408.863281 691.953125 409.246094 692.3125 409.660156 C 692.671875 410.070312 693.011719 410.507812 693.339844 410.96875 C 693.667969 411.425781 693.980469 411.90625 694.273438 412.410156 C 694.570312 412.910156 694.84375 413.433594 695.101562 413.972656 C 695.359375 414.511719 695.597656 415.070312 695.816406 415.640625 C 696.035156 416.214844 696.234375 416.800781 696.414062 417.402344 C 696.589844 418 696.746094 418.613281 696.882812 419.234375 C 697.015625 419.855469 697.128906 420.484375 697.21875 421.121094 C 697.308594 421.757812 697.378906 422.402344 697.421875 423.046875 C 697.46875 423.695312 697.492188 424.339844 697.492188 424.992188 Z M 697.492188 424.992188"/><path fill="#664500" d="M 771.15625 424.992188 C 771.15625 425.640625 771.136719 426.289062 771.089844 426.933594 C 771.042969 427.582031 770.976562 428.222656 770.886719 428.859375 C 770.792969 429.496094 770.683594 430.128906 770.546875 430.75 C 770.414062 431.371094 770.257812 431.980469 770.078125 432.582031 C 769.902344 433.179688 769.703125 433.769531 769.484375 434.339844 C 769.265625 434.914062 769.027344 435.46875 768.769531 436.011719 C 768.511719 436.550781 768.234375 437.070312 767.941406 437.574219 C 767.648438 438.074219 767.335938 438.554688 767.007812 439.015625 C 766.679688 439.476562 766.335938 439.910156 765.976562 440.324219 C 765.621094 440.734375 765.246094 441.121094 764.863281 441.480469 C 764.476562 441.84375 764.078125 442.175781 763.667969 442.484375 C 763.261719 442.789062 762.839844 443.066406 762.414062 443.316406 C 761.984375 443.5625 761.546875 443.78125 761.101562 443.96875 C 760.660156 444.160156 760.210938 444.316406 759.753906 444.445312 C 759.300781 444.570312 758.839844 444.664062 758.378906 444.730469 C 757.917969 444.792969 757.453125 444.824219 756.992188 444.824219 C 756.527344 444.824219 756.0625 444.792969 755.601562 444.730469 C 755.140625 444.664062 754.683594 444.570312 754.226562 444.445312 C 753.773438 444.316406 753.324219 444.160156 752.878906 443.96875 C 752.433594 443.78125 752 443.5625 751.570312 443.316406 C 751.140625 443.066406 750.722656 442.789062 750.3125 442.484375 C 749.902344 442.175781 749.507812 441.84375 749.121094 441.480469 C 748.734375 441.121094 748.363281 440.734375 748.003906 440.324219 C 747.644531 439.910156 747.300781 439.476562 746.972656 439.015625 C 746.644531 438.554688 746.335938 438.074219 746.039062 437.574219 C 745.746094 437.070312 745.46875 436.550781 745.210938 436.011719 C 744.953125 435.46875 744.714844 434.914062 744.496094 434.339844 C 744.277344 433.769531 744.082031 433.179688 743.902344 432.582031 C 743.726562 431.980469 743.570312 431.371094 743.433594 430.75 C 743.300781 430.128906 743.1875 429.496094 743.097656 428.859375 C 743.007812 428.222656 742.9375 427.582031 742.890625 426.933594 C 742.847656 426.289062 742.824219 425.640625 742.824219 424.992188 C 742.824219 424.339844 742.847656 423.695312 742.890625 423.046875 C 742.9375 422.402344 743.007812 421.757812 743.097656 421.121094 C 743.1875 420.484375 743.300781 419.855469 743.433594 419.234375 C 743.570312 418.613281 743.726562 418 743.902344 417.402344 C 744.082031 416.800781 744.277344 416.214844 744.496094 415.640625 C 744.714844 415.070312 744.953125 414.511719 745.210938 413.972656 C 745.46875 413.433594 745.746094 412.910156 746.039062 412.410156 C 746.335938 411.90625 746.644531 411.425781 746.972656 410.96875 C 747.300781 410.507812 747.644531 410.070312 748.003906 409.660156 C 748.363281 409.246094 748.734375 408.863281 749.121094 408.5 C 749.507812 408.140625 749.902344 407.804688 750.3125 407.5 C 750.722656 407.195312 751.140625 406.917969 751.570312 406.667969 C 752 406.417969 752.433594 406.199219 752.878906 406.011719 C 753.324219 405.824219 753.773438 405.664062 754.226562 405.539062 C 754.683594 405.414062 755.140625 405.316406 755.601562 405.253906 C 756.0625 405.191406 756.527344 405.15625 756.992188 405.15625 C 757.453125 405.15625 757.917969 405.191406 758.378906 405.253906 C 758.839844 405.316406 759.300781 405.414062 759.753906 405.539062 C 760.210938 405.664062 760.660156 405.824219 761.101562 406.011719 C 761.546875 406.199219 761.984375 406.417969 762.414062 406.667969 C 762.839844 406.917969 763.261719 407.195312 763.667969 407.5 C 764.078125 407.804688 764.476562 408.140625 764.863281 408.5 C 765.246094 408.863281 765.621094 409.246094 765.976562 409.660156 C 766.335938 410.070312 766.679688 410.507812 767.007812 410.96875 C 767.335938 411.425781 767.648438 411.90625 767.941406 412.410156 C 768.234375 412.910156 768.511719 413.433594 768.769531 413.972656 C 769.027344 414.511719 769.265625 415.070312 769.484375 415.640625 C 769.703125 416.214844 769.902344 416.800781 770.078125 417.402344 C 770.257812 418 770.414062 418.613281 770.546875 419.234375 C 770.683594 419.855469 770.792969 420.484375 770.886719 421.121094 C 770.976562 421.757812 771.042969 422.402344 771.089844 423.046875 C 771.136719 423.695312 771.15625 424.339844 771.15625 424.992188 Z M 771.15625 424.992188"/><g clip-path="url(#c)"><path fill="#FFCC4D" d="M 1059.347656 405.15625 C 1059.347656 461.492188 1013.679688 507.15625 957.347656 507.15625 C 901.023438 507.15625 855.347656 461.492188 855.347656 405.15625 C 855.347656 348.832031 901.023438 303.15625 957.347656 303.15625 C 1013.679688 303.15625 1059.347656 348.832031 1059.347656 405.15625"/></g><path fill="#664500" d="M 934.683594 396.65625 C 934.683594 397.308594 934.660156 397.957031 934.613281 398.601562 C 934.570312 399.25 934.5 399.890625 934.410156 400.527344 C 934.320312 401.164062 934.207031 401.792969 934.070312 402.414062 C 933.9375 403.035156 933.78125 403.648438 933.605469 404.246094 C 933.425781 404.847656 933.226562 405.433594 933.007812 406.007812 C 932.789062 406.582031 932.550781 407.136719 932.292969 407.675781 C 932.035156 408.21875 931.761719 408.738281 931.464844 409.238281 C 931.171875 409.742188 930.859375 410.222656 930.53125 410.683594 C 930.203125 411.140625 929.863281 411.578125 929.503906 411.988281 C 929.144531 412.402344 928.773438 412.789062 928.386719 413.148438 C 928 413.507812 927.601562 413.84375 927.195312 414.148438 C 926.785156 414.457031 926.367188 414.734375 925.9375 414.980469 C 925.507812 415.230469 925.070312 415.449219 924.628906 415.636719 C 924.183594 415.824219 923.734375 415.984375 923.28125 416.109375 C 922.824219 416.238281 922.367188 416.332031 921.902344 416.394531 C 921.441406 416.460938 920.980469 416.492188 920.515625 416.492188 C 920.050781 416.492188 919.589844 416.460938 919.128906 416.394531 C 918.664062 416.332031 918.207031 416.238281 917.75 416.109375 C 917.296875 415.984375 916.847656 415.824219 916.402344 415.636719 C 915.960938 415.449219 915.523438 415.230469 915.09375 414.980469 C 914.664062 414.734375 914.246094 414.457031 913.835938 414.148438 C 913.429688 413.84375 913.03125 413.507812 912.644531 413.148438 C 912.257812 412.789062 911.886719 412.402344 911.527344 411.988281 C 911.167969 411.578125 910.828125 411.140625 910.5 410.683594 C 910.171875 410.222656 909.859375 409.742188 909.566406 409.238281 C 909.269531 408.738281 908.996094 408.21875 908.738281 407.675781 C 908.480469 407.136719 908.242188 406.582031 908.023438 406.007812 C 907.804688 405.433594 907.605469 404.847656 907.425781 404.246094 C 907.25 403.648438 907.09375 403.035156 906.957031 402.414062 C 906.824219 401.792969 906.710938 401.164062 906.621094 400.527344 C 906.53125 399.890625 906.460938 399.25 906.417969 398.601562 C 906.371094 397.957031 906.347656 397.308594 906.347656 396.65625 C 906.347656 396.007812 906.371094 395.359375 906.417969 394.714844 C 906.460938 394.066406 906.53125 393.425781 906.621094 392.789062 C 906.710938 392.152344 906.824219 391.523438 906.957031 390.902344 C 907.09375 390.277344 907.25 389.667969 907.425781 389.066406 C 907.605469 388.46875 907.804688 387.882812 908.023438 387.308594 C 908.242188 386.734375 908.480469 386.179688 908.738281 385.640625 C 908.996094 385.097656 909.269531 384.578125 909.566406 384.074219 C 909.859375 383.574219 910.171875 383.09375 910.5 382.632812 C 910.828125 382.175781 911.167969 381.738281 911.527344 381.328125 C 911.886719 380.914062 912.257812 380.527344 912.644531 380.167969 C 913.03125 379.804688 913.429688 379.472656 913.835938 379.167969 C 914.246094 378.859375 914.664062 378.582031 915.09375 378.335938 C 915.523438 378.085938 915.960938 377.867188 916.402344 377.679688 C 916.847656 377.488281 917.296875 377.332031 917.75 377.207031 C 918.207031 377.078125 918.664062 376.984375 919.128906 376.921875 C 919.589844 376.855469 920.050781 376.824219 920.515625 376.824219 C 920.980469 376.824219 921.441406 376.855469 921.902344 376.921875 C 922.367188 376.984375 922.824219 377.078125 923.28125 377.207031 C 923.734375 377.332031 924.183594 377.488281 924.628906 377.679688 C 925.070312 377.867188 925.507812 378.085938 925.9375 378.335938 C 926.367188 378.582031 926.785156 378.859375 927.195312 379.167969 C 927.601562 379.472656 928 379.804688 928.386719 380.167969 C 928.773438 380.527344 929.144531 380.914062 929.503906 381.328125 C 929.863281 381.738281 930.203125 382.175781 930.53125 382.632812 C 930.859375 383.09375 931.171875 383.574219 931.464844 384.074219 C 931.761719 384.578125 932.035156 385.097656 932.292969 385.640625 C 932.550781 386.179688 932.789062 386.734375 933.007812 387.308594 C 933.226562 387.882812 933.425781 388.46875 933.605469 389.066406 C 933.78125 389.667969 933.9375 390.277344 934.070312 390.902344 C 934.207031 391.523438 934.320312 392.152344 934.410156 392.789062 C 934.5 393.425781 934.570312 394.066406 934.613281 394.714844 C 934.660156 395.359375 934.683594 396.007812 934.683594 396.65625 Z M 934.683594 396.65625"/><path fill="#664500" d="M 1016.605469 404.007812 C 1016.265625 403.242188 1008.109375 385.324219 991.347656 385.324219 C 974.59375 385.324219 966.433594 403.242188 966.09375 404.007812 C 965.570312 405.179688 965.910156 406.550781 966.914062 407.355469 C 967.90625 408.160156 969.328125 408.191406 970.371094 407.4375 C 970.4375 407.386719 977.523438 402.324219 991.347656 402.324219 C 1005.097656 402.324219 1012.167969 407.316406 1012.328125 407.429688 C 1012.824219 407.804688 1013.425781 407.992188 1014.015625 407.992188 C 1014.640625 407.992188 1015.269531 407.78125 1015.785156 407.375 C 1016.785156 406.570312 1017.132812 405.1875 1016.605469 404.007812 Z M 889.34375 373.753906 C 888.164062 373.753906 886.96875 373.386719 885.949219 372.621094 C 883.445312 370.746094 882.941406 367.191406 884.816406 364.6875 C 903.300781 340.035156 927.972656 339.753906 929.015625 339.753906 C 932.144531 339.753906 934.683594 342.292969 934.683594 345.421875 C 934.683594 348.542969 932.160156 351.074219 929.039062 351.085938 C 928.152344 351.097656 908.8125 351.574219 893.875 371.488281 C 892.773438 372.972656 891.066406 373.753906 889.34375 373.753906 Z M 1019.6875 385.796875 C 1017.960938 385.796875 1016.265625 385.011719 1015.148438 383.527344 C 1000.460938 363.9375 975.703125 368.640625 975.460938 368.679688 C 972.359375 369.292969 969.40625 367.304688 968.789062 364.238281 C 968.179688 361.167969 970.167969 358.1875 973.234375 357.570312 C 974.542969 357.304688 1005.289062 351.496094 1024.210938 376.722656 C 1026.089844 379.226562 1025.582031 382.78125 1023.078125 384.65625 C 1022.0625 385.433594 1020.871094 385.796875 1019.6875 385.796875 Z M 987.121094 436.761719 C 986.054688 436.136719 984.671875 436.269531 983.738281 437.101562 C 983.683594 437.144531 978 441.992188 957.347656 441.992188 C 936.714844 441.992188 931.023438 437.152344 931.023438 437.152344 C 930.121094 436.246094 928.730469 436.074219 927.621094 436.6875 C 926.515625 437.316406 925.960938 438.609375 926.273438 439.84375 C 926.328125 440.09375 932.753906 464.65625 957.347656 464.65625 C 981.941406 464.65625 988.367188 440.09375 988.429688 439.84375 C 988.730469 438.636719 988.179688 437.402344 987.121094 436.761719 Z M 987.121094 436.761719"/></svg>