<svg xmlns="http://www.w3.org/2000/svg" width="1440" viewBox="0 0 1440 810" height="810" version="1.0"><defs><clipPath id="a"><path d="M 377.339844 331 L 435 331 L 435 451 L 377.339844 451 Z M 377.339844 331"/></clipPath><clipPath id="b"><path d="M 417 308.132812 L 577 308.132812 L 577 394 L 417 394 Z M 417 308.132812"/></clipPath><clipPath id="c"><path d="M 377.339844 478 L 582.839844 478 L 582.839844 501.632812 L 377.339844 501.632812 Z M 377.339844 478"/></clipPath><clipPath id="d"><path d="M 451 478 L 475 478 L 475 501.632812 L 451 501.632812 Z M 451 478"/></clipPath><clipPath id="e"><path d="M 628.917969 308.132812 L 822.417969 308.132812 L 822.417969 501.632812 L 628.917969 501.632812 Z M 628.917969 308.132812"/></clipPath><clipPath id="f"><path d="M 901 308.132812 L 1030 308.132812 L 1030 478 L 901 478 Z M 901 308.132812"/></clipPath><clipPath id="g"><path d="M 896 452 L 1036 452 L 1036 501.632812 L 896 501.632812 Z M 896 452"/></clipPath><clipPath id="h"><path d="M 890 388 L 1024 388 L 1024 501.632812 L 890 501.632812 Z M 890 388"/></clipPath><clipPath id="i"><path d="M 917 424 L 1014 424 L 1014 501.632812 L 917 501.632812 Z M 917 424"/></clipPath><clipPath id="j"><path d="M 896 388 L 1041 388 L 1041 501.632812 L 896 501.632812 Z M 896 388"/></clipPath></defs><path fill="#FFCC4D" d="M 411.523438 484.609375 C 410.742188 458.183594 408.644531 439.214844 406.164062 439.214844 C 403.691406 439.214844 401.59375 458.183594 400.816406 484.609375 Z M 411.523438 484.609375"/><path fill="#A6D388" d="M 468.71875 413.242188 C 468.71875 441.871094 455.992188 450.5625 440.285156 450.5625 C 424.585938 450.5625 411.851562 441.871094 411.851562 413.242188 C 411.851562 384.621094 434.597656 342.746094 440.285156 342.746094 C 445.972656 342.746094 468.71875 384.621094 468.71875 413.242188 Z M 468.71875 413.242188"/><g clip-path="url(#a)"><path fill="#77B255" d="M 434.597656 409.316406 C 434.597656 440.949219 421.871094 450.5625 406.164062 450.5625 C 390.464844 450.5625 377.734375 440.949219 377.734375 409.316406 C 377.734375 377.667969 400.480469 331.398438 406.164062 331.398438 C 411.851562 331.398438 434.597656 377.667969 434.597656 409.316406 Z M 434.597656 409.316406"/></g><path fill="#FFE8B6" d="M 423.226562 388.144531 L 497.152344 314.375 L 571.074219 388.144531 L 571.074219 478.933594 L 423.226562 478.933594 Z M 423.226562 388.144531"/><path fill="#FFF" d="M 497.152344 388.144531 L 502.835938 388.144531 L 502.835938 478.933594 L 497.152344 478.933594 Z M 497.152344 388.144531"/><path fill="#FFCC4D" d="M 423.226562 388.144531 L 428.910156 388.144531 L 428.910156 478.933594 L 423.226562 478.933594 Z M 565.390625 388.144531 L 571.074219 388.144531 L 571.074219 478.933594 L 565.390625 478.933594 Z M 565.390625 388.144531"/><g clip-path="url(#b)"><path fill="#66757F" d="M 571.074219 393.816406 C 569.621094 393.816406 568.164062 393.261719 567.054688 392.15625 L 497.152344 322.398438 L 427.246094 392.15625 C 425.023438 394.375 421.429688 394.375 419.207031 392.15625 C 416.980469 389.9375 416.980469 386.351562 419.207031 384.132812 L 493.128906 310.363281 C 495.351562 308.144531 498.949219 308.144531 501.171875 310.363281 L 575.09375 384.132812 C 577.320312 386.351562 577.320312 389.9375 575.09375 392.15625 C 573.988281 393.261719 572.53125 393.816406 571.074219 393.816406 Z M 571.074219 393.816406"/></g><path fill="#66757F" d="M 497.152344 393.816406 C 495.695312 393.816406 494.238281 393.261719 493.128906 392.15625 C 490.90625 389.9375 490.90625 386.351562 493.128906 384.132812 L 530.09375 347.246094 C 532.316406 345.027344 535.910156 345.027344 538.132812 347.246094 C 540.355469 349.464844 540.355469 353.050781 538.132812 355.269531 L 501.171875 392.15625 C 500.0625 393.261719 498.605469 393.816406 497.152344 393.816406 Z M 497.152344 393.816406"/><path fill="#C1694F" d="M 451.65625 444.886719 L 474.40625 444.886719 L 474.40625 478.933594 L 451.65625 478.933594 Z M 451.65625 444.886719"/><path fill="#55ACEE" d="M 525.582031 444.886719 L 542.644531 444.886719 L 542.644531 467.585938 L 525.582031 467.585938 Z M 525.582031 444.886719"/><path fill="#55ACEE" d="M 519.898438 444.886719 L 531.269531 444.886719 L 531.269531 467.585938 L 519.898438 467.585938 Z M 536.957031 444.886719 L 548.328125 444.886719 L 548.328125 467.585938 L 536.957031 467.585938 Z M 451.65625 393.816406 L 474.40625 393.816406 L 474.40625 416.515625 L 451.65625 416.515625 Z M 519.898438 393.816406 L 548.328125 393.816406 L 548.328125 416.515625 L 519.898438 416.515625 Z M 519.898438 393.816406"/><g clip-path="url(#c)"><path fill="#5C913B" d="M 582.449219 490.285156 C 582.449219 496.546875 577.351562 501.632812 571.074219 501.632812 L 389.105469 501.632812 C 382.828125 501.632812 377.734375 496.546875 377.734375 490.285156 C 377.734375 484.019531 382.828125 478.933594 389.105469 478.933594 L 571.074219 478.933594 C 577.351562 478.933594 582.449219 484.019531 582.449219 490.285156 Z M 582.449219 490.285156"/></g><g clip-path="url(#d)"><path fill="#FFF" d="M 451.65625 478.933594 L 474.40625 478.933594 L 474.40625 501.632812 L 451.65625 501.632812 Z M 451.65625 478.933594"/></g><g clip-path="url(#e)"><path fill="#FFCC4D" d="M 822.417969 404.882812 C 822.417969 458.316406 779.101562 501.632812 725.667969 501.632812 C 672.242188 501.632812 628.917969 458.316406 628.917969 404.882812 C 628.917969 351.457031 672.242188 308.132812 725.667969 308.132812 C 779.101562 308.132812 822.417969 351.457031 822.417969 404.882812"/></g><path fill="#664500" d="M 765.902344 468.734375 C 765.660156 467.769531 759.621094 445.195312 725.667969 445.195312 C 691.710938 445.195312 685.679688 467.769531 685.4375 468.734375 C 685.140625 469.898438 685.667969 471.109375 686.710938 471.710938 C 687.757812 472.296875 689.070312 472.136719 689.9375 471.296875 C 690.039062 471.195312 700.4375 461.320312 725.667969 461.320312 C 750.898438 461.320312 761.304688 471.195312 761.402344 471.292969 C 761.917969 471.800781 762.605469 472.070312 763.292969 472.070312 C 763.746094 472.070312 764.203125 471.957031 764.617188 471.726562 C 765.667969 471.125 766.195312 469.90625 765.902344 468.734375 Z M 713.34375 401.082031 C 695.847656 383.585938 667.730469 383.382812 666.542969 383.382812 C 663.578125 383.382812 661.175781 385.785156 661.175781 388.746094 C 661.167969 391.714844 663.570312 394.121094 666.539062 394.132812 C 666.695312 394.132812 676.886719 394.25 687.945312 398.09375 C 684.761719 401.535156 682.667969 406.878906 682.667969 412.945312 C 682.667969 423.339844 688.683594 431.757812 696.105469 431.757812 C 703.527344 431.757812 709.542969 423.339844 709.542969 412.945312 C 709.542969 412.011719 709.441406 411.117188 709.34375 410.21875 C 709.414062 410.21875 709.480469 410.257812 709.542969 410.257812 C 710.917969 410.257812 712.296875 409.730469 713.34375 408.683594 C 715.445312 406.582031 715.445312 403.183594 713.34375 401.082031 Z M 784.792969 383.382812 C 783.605469 383.382812 755.496094 383.585938 737.992188 401.082031 C 735.890625 403.183594 735.890625 406.582031 737.992188 408.683594 C 739.042969 409.730469 740.417969 410.257812 741.792969 410.257812 C 741.863281 410.257812 741.921875 410.21875 741.988281 410.21875 C 741.902344 411.117188 741.792969 412.011719 741.792969 412.945312 C 741.792969 423.339844 747.808594 431.757812 755.230469 431.757812 C 762.652344 431.757812 768.667969 423.339844 768.667969 412.945312 C 768.667969 406.878906 766.578125 401.535156 763.390625 398.09375 C 774.453125 394.25 784.644531 394.132812 784.804688 394.132812 C 787.765625 394.121094 790.167969 391.714844 790.164062 388.746094 C 790.15625 385.785156 787.761719 383.382812 784.792969 383.382812 Z M 784.792969 383.382812"/><g clip-path="url(#f)"><path fill="#FFAC33" d="M 971.019531 308.667969 C 961.820312 308.667969 953.152344 310.835938 945.402344 314.605469 C 943.300781 314.242188 941.152344 314.011719 938.949219 314.011719 C 918.285156 314.011719 901.53125 330.765625 901.53125 351.429688 L 901.53125 415.574219 L 901.628906 415.574219 C 902.605469 450.140625 930.871094 477.878906 965.675781 477.878906 C 1000.480469 477.878906 1028.746094 450.140625 1029.722656 415.574219 L 1029.820312 415.574219 L 1029.820312 367.464844 C 1029.820312 334.992188 1003.492188 308.667969 971.019531 308.667969 Z M 971.019531 308.667969"/></g><path fill="#FFDC5D" d="M 944.292969 335.394531 C 944.292969 335.394531 944.277344 363.765625 917.566406 367.125 L 917.566406 399.539062 C 917.566406 426.109375 939.105469 447.644531 965.675781 447.644531 C 992.246094 447.644531 1013.78125 426.109375 1013.78125 399.539062 L 1013.78125 372.710938 C 954.398438 370.699219 944.292969 335.394531 944.292969 335.394531 Z M 944.292969 335.394531"/><path fill="#DF1F32" d="M 971.019531 426.265625 C 971.019531 426.617188 970.984375 426.960938 970.917969 427.308594 C 970.847656 427.652344 970.746094 427.984375 970.613281 428.308594 C 970.480469 428.632812 970.316406 428.941406 970.121094 429.234375 C 969.925781 429.527344 969.703125 429.796875 969.453125 430.042969 C 969.207031 430.292969 968.9375 430.515625 968.644531 430.707031 C 968.351562 430.902344 968.046875 431.070312 967.722656 431.203125 C 967.398438 431.335938 967.0625 431.4375 966.71875 431.507812 C 966.375 431.574219 966.027344 431.609375 965.675781 431.609375 C 965.324219 431.609375 964.976562 431.574219 964.632812 431.507812 C 964.289062 431.4375 963.953125 431.335938 963.628906 431.203125 C 963.304688 431.070312 962.996094 430.902344 962.707031 430.707031 C 962.414062 430.515625 962.144531 430.292969 961.894531 430.042969 C 961.648438 429.796875 961.425781 429.527344 961.230469 429.234375 C 961.035156 428.941406 960.871094 428.632812 960.738281 428.308594 C 960.601562 427.984375 960.5 427.652344 960.433594 427.308594 C 960.363281 426.960938 960.328125 426.617188 960.328125 426.265625 C 960.328125 425.914062 960.363281 425.566406 960.433594 425.222656 C 960.5 424.878906 960.601562 424.542969 960.738281 424.21875 C 960.871094 423.894531 961.035156 423.585938 961.230469 423.292969 C 961.425781 423.003906 961.648438 422.734375 961.894531 422.484375 C 962.144531 422.238281 962.414062 422.015625 962.707031 421.820312 C 962.996094 421.625 963.304688 421.460938 963.628906 421.324219 C 963.953125 421.191406 964.289062 421.089844 964.632812 421.023438 C 964.976562 420.953125 965.324219 420.917969 965.675781 420.917969 C 966.027344 420.917969 966.375 420.953125 966.71875 421.023438 C 967.0625 421.089844 967.398438 421.191406 967.722656 421.324219 C 968.046875 421.460938 968.351562 421.625 968.644531 421.820312 C 968.9375 422.015625 969.207031 422.238281 969.453125 422.484375 C 969.703125 422.734375 969.925781 423.003906 970.121094 423.292969 C 970.316406 423.585938 970.480469 423.894531 970.613281 424.21875 C 970.746094 424.542969 970.847656 424.878906 970.917969 425.222656 C 970.984375 425.566406 971.019531 425.914062 971.019531 426.265625 Z M 971.019531 426.265625"/><g clip-path="url(#g)"><path fill="#9268CA" d="M 1013.78125 452.992188 L 917.566406 452.992188 C 905.757812 452.992188 896.1875 462.5625 896.1875 474.371094 L 896.1875 501.097656 L 1035.164062 501.097656 L 1035.164062 474.371094 C 1035.164062 462.5625 1025.589844 452.992188 1013.78125 452.992188 Z M 1013.78125 452.992188"/></g><path fill="#F9CA55" d="M 883.25 378.15625 C 882.855469 378.15625 877.824219 374.667969 874.929688 375.265625 C 871.222656 376.035156 868.839844 379.660156 869.597656 383.375 L 872.558594 397.667969 L 872.558594 410.226562 C 872.558594 416.128906 877.347656 420.917969 883.25 420.917969 L 893.941406 420.917969 Z M 883.25 378.15625"/><path fill="#FFDC5D" d="M 877.90625 351.429688 C 874.953125 351.429688 872.558594 353.820312 872.558594 356.773438 L 877.90625 388.847656 L 877.90625 415.574219 C 877.90625 418.53125 880.300781 420.917969 883.25 420.917969 L 893.941406 420.917969 L 893.941406 410.226562 L 890.839844 388.847656 L 883.25 356.773438 C 883.25 356.773438 880.859375 351.429688 877.90625 351.429688 Z M 877.90625 351.429688"/><g clip-path="url(#h)"><path fill="#9268CA" d="M 1013.78125 452.992188 C 1035.164062 452.992188 1013.78125 501.097656 1013.78125 501.097656 L 890.839844 420.917969 L 890.839844 388.847656 Z M 1013.78125 452.992188"/></g><g clip-path="url(#i)"><path fill="#7450A8" d="M 972.875 476.554688 L 1012.035156 452.078125 L 1001.675781 446.671875 L 917.566406 501.097656 L 933.601562 501.097656 L 964.238281 481.953125 L 997.746094 501.097656 L 1013.78125 501.097656 Z M 984.609375 437.773438 L 958.847656 424.328125 L 923.320312 442.097656 L 939.65625 452.753906 Z M 984.609375 437.773438"/></g><path fill="#F9CA55" d="M 1056.421875 375.265625 C 1053.53125 374.667969 1050.734375 376.023438 1049.253906 378.398438 C 1048.871094 378.3125 1037.410156 420.917969 1037.410156 420.917969 L 1048.101562 420.917969 C 1054 420.917969 1058.789062 416.128906 1058.789062 410.226562 L 1058.789062 397.667969 L 1061.75 383.367188 C 1062.503906 379.660156 1060.125 376.027344 1056.421875 375.265625 Z M 1056.421875 375.265625"/><path fill="#FFDC5D" d="M 1053.445312 351.429688 C 1056.394531 351.429688 1058.789062 353.820312 1058.789062 356.773438 L 1053.445312 388.847656 L 1053.445312 415.574219 C 1053.445312 418.53125 1051.050781 420.917969 1048.101562 420.917969 L 1037.410156 420.917969 L 1037.410156 410.226562 L 1040.507812 388.847656 L 1048.101562 356.773438 C 1048.101562 356.773438 1050.488281 351.429688 1053.445312 351.429688 Z M 1053.445312 351.429688"/><g clip-path="url(#j)"><path fill="#9268CA" d="M 1040.507812 388.847656 L 917.566406 452.992188 C 905.757812 452.992188 896.1875 462.5625 896.1875 474.371094 L 896.1875 501.097656 L 917.566406 501.097656 L 965.863281 469.851562 L 965.675781 469.722656 L 1040.507812 420.917969 Z M 1040.507812 388.847656"/></g><path fill="#C1694F" d="M 971.019531 412.902344 L 960.328125 412.902344 C 958.855469 412.902344 957.65625 411.703125 957.65625 410.226562 C 957.65625 408.753906 958.855469 407.554688 960.328125 407.554688 L 971.019531 407.554688 C 972.496094 407.554688 973.691406 408.753906 973.691406 410.226562 C 973.691406 411.703125 972.496094 412.902344 971.019531 412.902344 Z M 971.019531 412.902344"/><path fill="#662113" d="M 944.292969 394.191406 C 941.34375 394.191406 938.949219 391.796875 938.949219 388.847656 L 938.949219 383.5 C 938.949219 380.550781 941.34375 378.15625 944.292969 378.15625 C 947.246094 378.15625 949.640625 380.550781 949.640625 383.5 L 949.640625 388.847656 C 949.640625 391.796875 947.246094 394.191406 944.292969 394.191406 Z M 987.054688 394.191406 C 984.101562 394.191406 981.710938 391.796875 981.710938 388.847656 L 981.710938 383.5 C 981.710938 380.550781 984.101562 378.15625 987.054688 378.15625 C 990.011719 378.15625 992.402344 380.550781 992.402344 383.5 L 992.402344 388.847656 C 992.402344 391.796875 990.011719 394.191406 987.054688 394.191406 Z M 987.054688 394.191406"/></svg>