<svg xmlns="http://www.w3.org/2000/svg" width="1440" viewBox="0 0 1440 810" height="810" version="1.0"><defs><clipPath id="a"><path d="M 380.964844 307.683594 L 575.597656 307.683594 L 575.597656 502.316406 L 380.964844 502.316406 Z M 380.964844 307.683594"/></clipPath><clipPath id="b"><path d="M 380.964844 394 L 575.597656 394 L 575.597656 481 L 380.964844 481 Z M 380.964844 394"/></clipPath><clipPath id="c"><path d="M 764 307.683594 L 821 307.683594 L 821 365 L 764 365 Z M 764 307.683594"/></clipPath><clipPath id="d"><path d="M 876.4375 490 L 1058.902344 490 L 1058.902344 502.316406 L 876.4375 502.316406 Z M 876.4375 490"/></clipPath></defs><g clip-path="url(#a)"><path fill="#FFCC4D" d="M 575.597656 405 C 575.597656 458.746094 532.027344 502.316406 478.28125 502.316406 C 424.542969 502.316406 380.964844 458.746094 380.964844 405 C 380.964844 351.261719 424.542969 307.683594 478.28125 307.683594 C 532.027344 307.683594 575.597656 351.261719 575.597656 405"/></g><path fill="#664500" d="M 418.816406 388.78125 C 417.070312 388.78125 415.355469 387.9375 414.3125 386.375 C 412.660156 383.886719 413.328125 380.53125 415.808594 378.875 C 416.53125 378.402344 433.65625 367.15625 456.65625 367.15625 C 459.640625 367.15625 462.0625 369.578125 462.0625 372.5625 C 462.0625 375.546875 459.640625 377.96875 456.65625 377.96875 C 436.894531 377.96875 421.957031 387.777344 421.8125 387.871094 C 420.886719 388.488281 419.84375 388.78125 418.816406 388.78125 Z M 537.746094 388.78125 C 536.722656 388.78125 535.679688 388.488281 534.761719 387.878906 C 534.609375 387.78125 519.519531 377.96875 499.90625 377.96875 C 496.917969 377.96875 494.5 375.546875 494.5 372.5625 C 494.5 369.578125 496.917969 367.15625 499.90625 367.15625 C 522.90625 367.15625 540.03125 378.402344 540.75 378.875 C 543.238281 380.53125 543.910156 383.886719 542.25 386.375 C 541.210938 387.9375 539.492188 388.78125 537.746094 388.78125 Z M 537.746094 388.78125"/><g clip-path="url(#b)"><path fill="#F5F8FA" d="M 526.9375 427.117188 L 575.597656 405 C 575.597656 401.433594 575.375 397.921875 575.007812 394.457031 L 526.9375 416.304688 L 526.9375 410.40625 C 526.9375 404.4375 522.09375 399.59375 516.125 399.59375 L 440.4375 399.59375 C 434.46875 399.59375 429.625 404.4375 429.625 410.40625 L 429.625 416.304688 L 381.5625 394.457031 C 381.1875 397.921875 380.964844 401.433594 380.964844 405 L 429.625 427.117188 L 429.625 451.695312 L 389.328125 444.371094 C 391.171875 448.53125 393.335938 452.515625 395.726562 456.34375 L 429.625 462.507812 L 429.625 469.875 C 429.625 475.84375 434.46875 480.6875 440.4375 480.6875 L 516.125 480.6875 C 522.09375 480.6875 526.9375 475.84375 526.9375 469.875 L 526.9375 462.507812 L 560.84375 456.339844 C 563.226562 452.511719 565.386719 448.527344 567.230469 444.363281 L 526.9375 451.695312 Z M 526.9375 427.117188"/></g><g clip-path="url(#c)"><path fill="#66757F" d="M 770.074219 364.117188 C 768.605469 364.117188 767.136719 363.554688 766.015625 362.433594 C 763.769531 360.1875 763.769531 356.5625 766.015625 354.316406 L 810.679688 309.660156 C 812.921875 307.414062 816.550781 307.414062 818.796875 309.660156 C 821.042969 311.90625 821.042969 315.535156 818.796875 317.777344 L 774.136719 362.433594 C 773.015625 363.554688 771.546875 364.117188 770.074219 364.117188 Z M 770.074219 364.117188"/></g><path fill="#CCD6DD" d="M 664.511719 488.289062 C 660.027344 492.765625 652.753906 492.765625 648.269531 488.289062 L 640.148438 480.171875 C 635.664062 475.6875 635.664062 468.414062 640.148438 463.929688 L 668.574219 435.515625 C 673.058594 431.03125 680.328125 431.03125 684.8125 435.515625 L 692.9375 443.632812 C 697.421875 448.117188 697.421875 455.386719 692.9375 459.871094 Z M 664.511719 488.289062"/><path fill="#99AAB5" d="M 780.226562 372.585938 C 776.863281 375.949219 771.410156 375.945312 768.050781 372.585938 L 755.871094 360.40625 C 752.503906 357.042969 752.503906 351.589844 755.871094 348.222656 C 759.230469 344.859375 764.683594 344.859375 768.050781 348.222656 L 780.226562 360.40625 C 783.59375 363.765625 783.59375 369.21875 780.226562 372.585938 Z M 780.226562 372.585938"/><path fill="#E1E8ED" d="M 709.167969 459.863281 C 704.683594 464.347656 697.414062 464.347656 692.929688 459.863281 L 668.566406 435.507812 C 664.082031 431.027344 664.082031 423.75 668.566406 419.265625 L 737.59375 350.257812 C 742.078125 345.773438 749.351562 345.773438 753.832031 350.257812 L 778.195312 374.617188 C 782.679688 379.101562 782.679688 386.371094 778.195312 390.859375 Z M 709.167969 459.863281"/><path fill="#DD2E44" d="M 733.535156 435.507812 C 729.050781 439.988281 725.839844 435.929688 721.355469 431.449219 L 696.992188 407.089844 C 692.507812 402.605469 688.445312 399.398438 692.929688 394.914062 L 737.59375 350.257812 C 742.078125 345.773438 749.351562 345.773438 753.832031 350.257812 L 778.195312 374.617188 C 782.679688 379.101562 782.679688 386.371094 778.195312 390.859375 Z M 733.535156 435.507812"/><path fill="#99AAB5" d="M 711.203125 474.074219 C 707.84375 477.4375 702.382812 477.4375 699.023438 474.074219 L 654.363281 429.421875 C 650.996094 426.058594 651.003906 420.605469 654.363281 417.242188 C 657.71875 413.875 663.179688 413.875 666.546875 417.242188 L 711.207031 461.894531 C 714.566406 465.261719 714.566406 470.714844 711.203125 474.074219 Z M 670.601562 498.433594 C 667.242188 501.796875 661.78125 501.796875 658.414062 498.433594 L 629.992188 470.015625 C 626.628906 466.648438 626.632812 461.203125 629.992188 457.835938 C 633.351562 454.472656 638.8125 454.472656 642.175781 457.835938 L 670.601562 486.257812 C 673.964844 489.613281 673.964844 495.070312 670.601562 498.433594 Z M 670.601562 498.433594"/><path fill="#DD2E44" d="M 820.675781 396.113281 C 818.527344 392.769531 815.582031 388.191406 811.859375 380.75 C 811.109375 379.234375 808.621094 379.234375 807.871094 380.75 C 804.148438 388.191406 801.203125 392.769531 799.054688 396.113281 C 796.054688 400.785156 794.238281 403.609375 794.238281 408.535156 C 794.238281 417.15625 801.25 424.164062 809.867188 424.164062 C 818.488281 424.164062 825.5 417.15625 825.5 408.535156 C 825.492188 403.609375 823.679688 400.785156 820.675781 396.113281 Z M 797.707031 447.785156 C 795.558594 444.441406 792.613281 439.859375 788.894531 432.421875 C 788.140625 430.90625 785.648438 430.90625 784.902344 432.421875 C 781.179688 439.859375 778.234375 444.441406 776.089844 447.785156 C 773.085938 452.457031 771.269531 455.289062 771.269531 460.207031 C 771.269531 468.824219 778.28125 475.84375 786.902344 475.84375 C 795.519531 475.84375 802.53125 468.824219 802.53125 460.207031 C 802.523438 455.289062 800.710938 452.457031 797.707031 447.785156 Z M 797.707031 447.785156"/><path fill="#FFE8B6" d="M 888.902344 393.175781 L 967.667969 314.355469 L 1046.433594 393.175781 L 1046.433594 490.1875 L 888.902344 490.1875 Z M 888.902344 393.175781"/><path fill="#FFCC4D" d="M 888.902344 393.175781 L 894.960938 393.175781 L 894.960938 490.1875 L 888.902344 490.1875 Z M 1040.375 393.175781 L 1046.433594 393.175781 L 1046.433594 490.1875 L 1040.375 490.1875 Z M 1040.375 393.175781"/><path fill="#66757F" d="M 1046.433594 399.238281 C 1044.882812 399.238281 1043.332031 398.644531 1042.152344 397.464844 L 967.667969 322.929688 L 893.183594 397.464844 C 890.816406 399.835938 886.988281 399.835938 884.617188 397.464844 C 882.25 395.09375 882.25 391.261719 884.617188 388.890625 L 963.382812 310.066406 C 965.753906 307.699219 969.582031 307.699219 971.953125 310.066406 L 1050.71875 388.890625 C 1053.089844 391.261719 1053.089844 395.09375 1050.71875 397.464844 C 1049.539062 398.644531 1047.988281 399.238281 1046.433594 399.238281 Z M 1046.433594 399.238281"/><path fill="#C1694F" d="M 955.550781 441.683594 L 979.785156 441.683594 L 979.785156 490.1875 L 955.550781 490.1875 Z M 955.550781 441.683594"/><path fill="#55ACEE" d="M 913.136719 393.175781 L 937.375 393.175781 L 937.375 417.429688 L 913.136719 417.429688 Z M 997.964844 393.175781 L 1022.199219 393.175781 L 1022.199219 417.429688 L 997.964844 417.429688 Z M 955.550781 393.175781 L 979.785156 393.175781 L 979.785156 417.429688 L 955.550781 417.429688 Z M 913.136719 441.683594 L 937.375 441.683594 L 937.375 465.9375 L 913.136719 465.9375 Z M 997.964844 441.683594 L 1022.199219 441.683594 L 1022.199219 465.9375 L 997.964844 465.9375 Z M 997.964844 441.683594"/><g clip-path="url(#d)"><path fill="#BCBEC0" d="M 1058.554688 496.25 C 1058.554688 499.605469 1055.84375 502.316406 1052.496094 502.316406 L 882.84375 502.316406 C 879.496094 502.316406 876.78125 499.605469 876.78125 496.25 C 876.78125 492.898438 879.496094 490.1875 882.84375 490.1875 L 1052.496094 490.1875 C 1055.84375 490.1875 1058.554688 492.898438 1058.554688 496.25 Z M 1058.554688 496.25"/></g></svg>