<svg xmlns="http://www.w3.org/2000/svg" width="1440" viewBox="0 0 1440 810" height="810" version="1.0"><defs><clipPath id="a"><path d="M 851.785156 301.375 L 1059.035156 301.375 L 1059.035156 508.625 L 851.785156 508.625 Z M 851.785156 301.375"/></clipPath><clipPath id="b"><path d="M 610.535156 301.375 L 806.269531 301.375 L 806.269531 508.625 L 610.535156 508.625 Z M 610.535156 301.375"/></clipPath><clipPath id="c"><path d="M 380.964844 301.375 L 565.1875 301.375 L 565.1875 508.625 L 380.964844 508.625 Z M 380.964844 301.375"/></clipPath></defs><g clip-path="url(#a)"><path fill="#FFCC4D" d="M 1059.035156 405 C 1059.035156 462.230469 1012.636719 508.625 955.410156 508.625 C 898.183594 508.625 851.785156 462.230469 851.785156 405 C 851.785156 347.777344 898.183594 301.375 955.410156 301.375 C 1012.636719 301.375 1059.035156 347.777344 1059.035156 405"/></g><path fill="#664500" d="M 932.378906 373.335938 C 932.378906 374.375 932.359375 375.410156 932.3125 376.441406 C 932.265625 377.472656 932.195312 378.496094 932.105469 379.515625 C 932.011719 380.53125 931.898438 381.535156 931.761719 382.527344 C 931.625 383.519531 931.464844 384.496094 931.285156 385.453125 C 931.105469 386.410156 930.902344 387.347656 930.679688 388.261719 C 930.460938 389.175781 930.21875 390.066406 929.957031 390.929688 C 929.695312 391.789062 929.414062 392.621094 929.113281 393.421875 C 928.816406 394.226562 928.5 394.992188 928.164062 395.726562 C 927.832031 396.460938 927.484375 397.15625 927.117188 397.8125 C 926.753906 398.46875 926.375 399.085938 925.984375 399.664062 C 925.59375 400.238281 925.1875 400.773438 924.773438 401.261719 C 924.355469 401.75 923.933594 402.191406 923.496094 402.589844 C 923.0625 402.988281 922.617188 403.335938 922.167969 403.636719 C 921.714844 403.9375 921.257812 404.1875 920.796875 404.390625 C 920.332031 404.59375 919.867188 404.746094 919.398438 404.847656 C 918.929688 404.949219 918.460938 405 917.988281 405 C 917.515625 405 917.046875 404.949219 916.578125 404.847656 C 916.109375 404.746094 915.644531 404.59375 915.179688 404.390625 C 914.71875 404.1875 914.261719 403.9375 913.8125 403.636719 C 913.359375 403.335938 912.917969 402.988281 912.480469 402.589844 C 912.046875 402.191406 911.621094 401.75 911.203125 401.261719 C 910.789062 400.773438 910.382812 400.238281 909.992188 399.664062 C 909.601562 399.085938 909.222656 398.46875 908.859375 397.8125 C 908.492188 397.15625 908.144531 396.460938 907.8125 395.726562 C 907.476562 394.992188 907.160156 394.226562 906.863281 393.421875 C 906.5625 392.621094 906.285156 391.789062 906.023438 390.929688 C 905.761719 390.066406 905.519531 389.175781 905.296875 388.261719 C 905.074219 387.347656 904.871094 386.410156 904.691406 385.453125 C 904.511719 384.496094 904.351562 383.519531 904.214844 382.527344 C 904.078125 381.535156 903.964844 380.53125 903.871094 379.515625 C 903.78125 378.496094 903.710938 377.472656 903.664062 376.441406 C 903.621094 375.410156 903.597656 374.375 903.597656 373.335938 C 903.597656 372.300781 903.621094 371.265625 903.664062 370.234375 C 903.710938 369.203125 903.78125 368.175781 903.871094 367.160156 C 903.964844 366.140625 904.078125 365.136719 904.214844 364.144531 C 904.351562 363.152344 904.511719 362.179688 904.691406 361.21875 C 904.871094 360.261719 905.074219 359.324219 905.296875 358.410156 C 905.519531 357.496094 905.761719 356.609375 906.023438 355.746094 C 906.285156 354.882812 906.5625 354.050781 906.863281 353.25 C 907.160156 352.449219 907.476562 351.679688 907.8125 350.949219 C 908.144531 350.214844 908.492188 349.519531 908.859375 348.859375 C 909.222656 348.203125 909.601562 347.585938 909.992188 347.011719 C 910.382812 346.433594 910.789062 345.902344 911.203125 345.414062 C 911.621094 344.921875 912.046875 344.480469 912.480469 344.082031 C 912.917969 343.6875 913.359375 343.339844 913.8125 343.035156 C 914.261719 342.734375 914.71875 342.484375 915.179688 342.28125 C 915.644531 342.078125 916.109375 341.929688 916.578125 341.824219 C 917.046875 341.722656 917.515625 341.671875 917.988281 341.671875 C 918.460938 341.671875 918.929688 341.722656 919.398438 341.824219 C 919.867188 341.929688 920.332031 342.078125 920.796875 342.28125 C 921.257812 342.484375 921.714844 342.734375 922.167969 343.035156 C 922.617188 343.339844 923.0625 343.6875 923.496094 344.082031 C 923.933594 344.480469 924.355469 344.921875 924.773438 345.414062 C 925.1875 345.902344 925.59375 346.433594 925.984375 347.011719 C 926.375 347.585938 926.753906 348.203125 927.117188 348.859375 C 927.484375 349.519531 927.832031 350.214844 928.164062 350.949219 C 928.5 351.679688 928.816406 352.449219 929.113281 353.25 C 929.414062 354.050781 929.695312 354.882812 929.957031 355.746094 C 930.21875 356.609375 930.460938 357.496094 930.679688 358.410156 C 930.902344 359.324219 931.105469 360.261719 931.285156 361.21875 C 931.464844 362.179688 931.625 363.152344 931.761719 364.144531 C 931.898438 365.136719 932.011719 366.140625 932.105469 367.160156 C 932.195312 368.175781 932.265625 369.203125 932.3125 370.234375 C 932.359375 371.265625 932.378906 372.300781 932.378906 373.335938 Z M 932.378906 373.335938"/><path fill="#664500" d="M 1007.222656 373.335938 C 1007.222656 374.375 1007.199219 375.410156 1007.152344 376.441406 C 1007.105469 377.472656 1007.035156 378.496094 1006.945312 379.515625 C 1006.851562 380.53125 1006.738281 381.535156 1006.601562 382.527344 C 1006.464844 383.519531 1006.304688 384.496094 1006.125 385.453125 C 1005.945312 386.410156 1005.742188 387.347656 1005.523438 388.261719 C 1005.300781 389.175781 1005.058594 390.066406 1004.796875 390.929688 C 1004.535156 391.789062 1004.253906 392.621094 1003.953125 393.421875 C 1003.65625 394.226562 1003.339844 394.992188 1003.003906 395.726562 C 1002.671875 396.460938 1002.324219 397.15625 1001.960938 397.8125 C 1001.59375 398.46875 1001.214844 399.085938 1000.824219 399.664062 C 1000.433594 400.238281 1000.027344 400.773438 999.613281 401.261719 C 999.199219 401.75 998.773438 402.191406 998.335938 402.589844 C 997.902344 402.988281 997.457031 403.335938 997.007812 403.636719 C 996.554688 403.9375 996.097656 404.1875 995.636719 404.390625 C 995.175781 404.59375 994.707031 404.746094 994.238281 404.847656 C 993.769531 404.949219 993.300781 405 992.828125 405 C 992.355469 405 991.886719 404.949219 991.417969 404.847656 C 990.949219 404.746094 990.484375 404.59375 990.019531 404.390625 C 989.558594 404.1875 989.101562 403.9375 988.652344 403.636719 C 988.199219 403.335938 987.757812 402.988281 987.320312 402.589844 C 986.886719 402.191406 986.460938 401.75 986.042969 401.261719 C 985.628906 400.773438 985.226562 400.238281 984.832031 399.664062 C 984.441406 399.085938 984.0625 398.46875 983.699219 397.8125 C 983.332031 397.15625 982.984375 396.460938 982.652344 395.726562 C 982.320312 394.992188 982.003906 394.226562 981.703125 393.421875 C 981.402344 392.621094 981.125 391.789062 980.863281 390.929688 C 980.601562 390.066406 980.359375 389.175781 980.136719 388.261719 C 979.914062 387.347656 979.710938 386.410156 979.53125 385.453125 C 979.351562 384.496094 979.191406 383.519531 979.054688 382.527344 C 978.917969 381.535156 978.804688 380.53125 978.714844 379.515625 C 978.621094 378.496094 978.550781 377.472656 978.503906 376.441406 C 978.460938 375.410156 978.4375 374.375 978.4375 373.335938 C 978.4375 372.300781 978.460938 371.265625 978.503906 370.234375 C 978.550781 369.203125 978.621094 368.175781 978.714844 367.160156 C 978.804688 366.140625 978.917969 365.136719 979.054688 364.144531 C 979.191406 363.152344 979.351562 362.179688 979.53125 361.21875 C 979.710938 360.261719 979.914062 359.324219 980.136719 358.410156 C 980.359375 357.496094 980.601562 356.609375 980.863281 355.746094 C 981.125 354.882812 981.402344 354.050781 981.703125 353.25 C 982.003906 352.449219 982.320312 351.679688 982.652344 350.949219 C 982.984375 350.214844 983.332031 349.519531 983.699219 348.859375 C 984.0625 348.203125 984.441406 347.585938 984.832031 347.011719 C 985.226562 346.433594 985.628906 345.902344 986.042969 345.414062 C 986.460938 344.921875 986.886719 344.480469 987.320312 344.082031 C 987.757812 343.6875 988.199219 343.339844 988.652344 343.035156 C 989.101562 342.734375 989.558594 342.484375 990.019531 342.28125 C 990.484375 342.078125 990.949219 341.929688 991.417969 341.824219 C 991.886719 341.722656 992.355469 341.671875 992.828125 341.671875 C 993.300781 341.671875 993.769531 341.722656 994.238281 341.824219 C 994.707031 341.929688 995.175781 342.078125 995.636719 342.28125 C 996.097656 342.484375 996.554688 342.734375 997.007812 343.035156 C 997.457031 343.339844 997.902344 343.6875 998.335938 344.082031 C 998.773438 344.480469 999.199219 344.921875 999.613281 345.414062 C 1000.027344 345.902344 1000.433594 346.433594 1000.824219 347.011719 C 1001.214844 347.585938 1001.59375 348.203125 1001.960938 348.859375 C 1002.324219 349.519531 1002.671875 350.214844 1003.003906 350.949219 C 1003.339844 351.679688 1003.65625 352.449219 1003.953125 353.25 C 1004.253906 354.050781 1004.535156 354.882812 1004.796875 355.746094 C 1005.058594 356.609375 1005.300781 357.496094 1005.523438 358.410156 C 1005.742188 359.324219 1005.945312 360.261719 1006.125 361.21875 C 1006.304688 362.179688 1006.464844 363.152344 1006.601562 364.144531 C 1006.738281 365.136719 1006.851562 366.140625 1006.945312 367.160156 C 1007.035156 368.175781 1007.105469 369.203125 1007.152344 370.234375 C 1007.199219 371.265625 1007.222656 372.300781 1007.222656 373.335938 Z M 1007.222656 373.335938"/><path fill="#664500" d="M 955.410156 428.027344 C 934.550781 428.027344 920.710938 425.597656 903.597656 422.269531 C 899.6875 421.515625 892.082031 422.269531 892.082031 433.785156 C 892.082031 456.8125 918.535156 485.597656 955.410156 485.597656 C 992.277344 485.597656 1018.734375 456.8125 1018.734375 433.785156 C 1018.734375 422.269531 1011.128906 421.511719 1007.222656 422.269531 C 990.105469 425.597656 976.265625 428.027344 955.410156 428.027344 Z M 955.410156 428.027344"/><path fill="#FFF" d="M 903.597656 433.785156 C 903.597656 433.785156 920.867188 439.542969 955.410156 439.542969 C 989.949219 439.542969 1007.222656 433.785156 1007.222656 433.785156 C 1007.222656 433.785156 995.707031 456.8125 955.410156 456.8125 C 915.109375 456.8125 903.597656 433.785156 903.597656 433.785156 Z M 903.597656 433.785156"/><g clip-path="url(#b)"><path fill="#CCD6DD" d="M 806.167969 485.597656 C 806.167969 498.3125 795.871094 508.625 783.164062 508.625 L 633.640625 508.625 C 620.933594 508.625 610.636719 498.3125 610.636719 485.597656 L 610.636719 324.402344 C 610.636719 311.6875 620.933594 301.375 633.640625 301.375 L 783.164062 301.375 C 795.871094 301.375 806.167969 311.6875 806.167969 324.402344 Z M 806.167969 485.597656"/></g><path fill="#E1E8ED" d="M 788.917969 318.644531 L 627.886719 318.644531 C 624.707031 318.644531 622.136719 321.226562 622.136719 324.402344 L 622.136719 485.597656 C 622.136719 488.78125 624.707031 491.355469 627.886719 491.355469 L 788.917969 491.355469 C 792.097656 491.355469 794.667969 488.78125 794.667969 485.597656 L 794.667969 324.402344 C 794.667969 321.226562 792.097656 318.644531 788.917969 318.644531 Z M 702.652344 399.242188 L 673.894531 399.242188 L 673.894531 370.457031 L 702.652344 370.457031 Z M 714.152344 370.457031 L 742.910156 370.457031 L 742.910156 399.242188 L 714.152344 399.242188 Z M 662.394531 399.242188 L 633.640625 399.242188 L 633.640625 370.457031 L 662.394531 370.457031 Z M 662.394531 410.757812 L 662.394531 439.542969 L 633.640625 439.542969 L 633.640625 410.757812 Z M 673.894531 410.757812 L 702.652344 410.757812 L 702.652344 439.542969 L 673.894531 439.542969 Z M 714.152344 410.757812 L 742.910156 410.757812 L 742.910156 439.542969 L 714.152344 439.542969 Z M 754.410156 410.757812 L 783.164062 410.757812 L 783.164062 439.542969 L 754.410156 439.542969 Z M 754.410156 399.242188 L 754.410156 370.457031 L 783.164062 370.457031 L 783.164062 399.242188 Z M 754.410156 358.945312 L 754.410156 330.160156 L 783.164062 330.160156 L 783.164062 358.945312 Z M 742.910156 358.945312 L 714.152344 358.945312 L 714.152344 330.160156 L 742.910156 330.160156 Z M 702.652344 358.945312 L 673.894531 358.945312 L 673.894531 330.160156 L 702.652344 330.160156 Z M 662.394531 358.945312 L 633.640625 358.945312 L 633.640625 330.160156 L 662.394531 330.160156 Z M 633.640625 451.054688 L 662.394531 451.054688 L 662.394531 479.839844 L 633.640625 479.839844 Z M 673.894531 451.054688 L 702.652344 451.054688 L 702.652344 479.839844 L 673.894531 479.839844 Z M 714.152344 451.054688 L 742.910156 451.054688 L 742.910156 479.839844 L 714.152344 479.839844 Z M 754.410156 451.054688 L 783.164062 451.054688 L 783.164062 479.839844 L 754.410156 479.839844 Z M 754.410156 451.054688"/><path fill="#DD2E44" d="M 633.628906 491.355469 C 631.789062 491.355469 629.917969 490.917969 628.1875 489.976562 C 622.589844 486.96875 620.503906 479.984375 623.511719 474.382812 L 663.769531 399.542969 C 665.488281 396.335938 668.628906 394.136719 672.222656 393.605469 C 675.824219 393.078125 679.457031 394.285156 682.027344 396.859375 L 716.972656 431.839844 L 772.972656 324.816406 C 775.917969 319.1875 782.871094 317.003906 788.496094 319.964844 C 794.125 322.910156 796.292969 329.871094 793.351562 335.507812 L 730.089844 456.402344 C 728.394531 459.652344 725.253906 461.890625 721.636719 462.449219 C 718.03125 462.972656 714.355469 461.796875 711.765625 459.207031 L 676.6875 424.097656 L 643.765625 485.296875 C 641.691406 489.160156 637.722656 491.355469 633.628906 491.355469 Z M 633.628906 491.355469"/><g clip-path="url(#c)"><path fill="#CCD6DD" d="M 565.167969 393.484375 C 565.167969 335.917969 523.941406 301.375 473.078125 301.375 C 422.21875 301.375 380.984375 335.917969 380.984375 393.484375 C 380.984375 425.574219 380.996094 453.289062 415.519531 466.253906 L 415.519531 491.355469 C 415.519531 500.894531 423.25 508.625 432.785156 508.625 C 442.324219 508.625 450.054688 500.894531 450.054688 491.355469 L 450.054688 473.191406 C 451.917969 473.347656 453.847656 473.480469 455.808594 473.59375 L 455.808594 491.355469 C 455.808594 500.894531 463.539062 508.625 473.078125 508.625 C 482.613281 508.625 490.34375 500.894531 490.34375 491.355469 L 490.34375 473.59375 C 492.3125 473.472656 494.234375 473.347656 496.101562 473.191406 L 496.101562 491.355469 C 496.101562 500.894531 503.835938 508.625 513.367188 508.625 C 522.90625 508.625 530.636719 500.894531 530.636719 491.355469 L 530.636719 466.253906 C 565.160156 453.289062 565.167969 425.574219 565.167969 393.484375 Z M 565.167969 393.484375"/></g><path fill="#292F33" d="M 461.566406 381.972656 C 461.566406 382.914062 461.519531 383.855469 461.425781 384.792969 C 461.335938 385.730469 461.195312 386.664062 461.011719 387.585938 C 460.828125 388.511719 460.601562 389.425781 460.328125 390.328125 C 460.054688 391.230469 459.734375 392.117188 459.375 392.988281 C 459.015625 393.859375 458.613281 394.710938 458.167969 395.542969 C 457.722656 396.371094 457.238281 397.179688 456.714844 397.964844 C 456.191406 398.746094 455.632812 399.503906 455.035156 400.234375 C 454.433594 400.960938 453.804688 401.660156 453.136719 402.324219 C 452.46875 402.992188 451.773438 403.625 451.042969 404.222656 C 450.316406 404.820312 449.558594 405.382812 448.777344 405.90625 C 447.992188 406.429688 447.183594 406.914062 446.351562 407.359375 C 445.523438 407.800781 444.671875 408.203125 443.800781 408.566406 C 442.929688 408.925781 442.042969 409.242188 441.140625 409.515625 C 440.238281 409.792969 439.324219 410.019531 438.402344 410.203125 C 437.476562 410.386719 436.546875 410.527344 435.609375 410.617188 C 434.667969 410.710938 433.730469 410.757812 432.785156 410.757812 C 431.84375 410.757812 430.902344 410.710938 429.964844 410.617188 C 429.027344 410.527344 428.097656 410.386719 427.171875 410.203125 C 426.25 410.019531 425.335938 409.792969 424.433594 409.515625 C 423.53125 409.242188 422.644531 408.925781 421.773438 408.566406 C 420.902344 408.203125 420.050781 407.800781 419.222656 407.359375 C 418.390625 406.914062 417.582031 406.429688 416.796875 405.90625 C 416.015625 405.382812 415.257812 404.820312 414.53125 404.222656 C 413.800781 403.625 413.105469 402.992188 412.4375 402.324219 C 411.769531 401.660156 411.136719 400.960938 410.539062 400.234375 C 409.941406 399.503906 409.382812 398.746094 408.859375 397.964844 C 408.335938 397.179688 407.851562 396.371094 407.40625 395.542969 C 406.960938 394.710938 406.558594 393.859375 406.199219 392.988281 C 405.839844 392.117188 405.519531 391.230469 405.246094 390.328125 C 404.972656 389.425781 404.746094 388.511719 404.5625 387.585938 C 404.378906 386.664062 404.238281 385.730469 404.148438 384.792969 C 404.054688 383.855469 404.007812 382.914062 404.007812 381.972656 C 404.007812 381.03125 404.054688 380.089844 404.148438 379.152344 C 404.238281 378.210938 404.378906 377.28125 404.5625 376.355469 C 404.746094 375.433594 404.972656 374.519531 405.246094 373.617188 C 405.519531 372.714844 405.839844 371.828125 406.199219 370.957031 C 406.558594 370.085938 406.960938 369.234375 407.40625 368.402344 C 407.851562 367.570312 408.335938 366.765625 408.859375 365.980469 C 409.382812 365.195312 409.941406 364.441406 410.539062 363.710938 C 411.136719 362.984375 411.769531 362.285156 412.4375 361.617188 C 413.105469 360.953125 413.800781 360.320312 414.53125 359.722656 C 415.257812 359.125 416.015625 358.5625 416.796875 358.039062 C 417.582031 357.515625 418.390625 357.03125 419.222656 356.585938 C 420.050781 356.140625 420.902344 355.738281 421.773438 355.378906 C 422.644531 355.019531 423.53125 354.699219 424.433594 354.425781 C 425.335938 354.152344 426.25 353.925781 427.171875 353.742188 C 428.097656 353.558594 429.027344 353.417969 429.964844 353.324219 C 430.902344 353.234375 431.84375 353.1875 432.785156 353.1875 C 433.730469 353.1875 434.667969 353.234375 435.609375 353.324219 C 436.546875 353.417969 437.476562 353.558594 438.402344 353.742188 C 439.324219 353.925781 440.238281 354.152344 441.140625 354.425781 C 442.042969 354.699219 442.929688 355.019531 443.800781 355.378906 C 444.671875 355.738281 445.523438 356.140625 446.351562 356.585938 C 447.183594 357.03125 447.992188 357.515625 448.777344 358.039062 C 449.558594 358.5625 450.316406 359.125 451.042969 359.722656 C 451.773438 360.320312 452.46875 360.953125 453.136719 361.617188 C 453.804688 362.285156 454.433594 362.984375 455.035156 363.710938 C 455.632812 364.441406 456.191406 365.195312 456.714844 365.980469 C 457.238281 366.765625 457.722656 367.570312 458.167969 368.402344 C 458.613281 369.234375 459.015625 370.085938 459.375 370.957031 C 459.734375 371.828125 460.054688 372.714844 460.328125 373.617188 C 460.601562 374.519531 460.828125 375.433594 461.011719 376.355469 C 461.195312 377.28125 461.335938 378.210938 461.425781 379.152344 C 461.519531 380.089844 461.566406 381.03125 461.566406 381.972656 Z M 461.566406 381.972656"/><path fill="#292F33" d="M 542.148438 381.972656 C 542.148438 382.914062 542.101562 383.855469 542.007812 384.792969 C 541.914062 385.730469 541.777344 386.664062 541.59375 387.585938 C 541.410156 388.511719 541.179688 389.425781 540.90625 390.328125 C 540.632812 391.230469 540.316406 392.117188 539.957031 392.988281 C 539.59375 393.859375 539.191406 394.710938 538.75 395.542969 C 538.304688 396.371094 537.820312 397.179688 537.296875 397.964844 C 536.773438 398.746094 536.210938 399.503906 535.613281 400.234375 C 535.015625 400.960938 534.382812 401.660156 533.71875 402.324219 C 533.050781 402.992188 532.351562 403.625 531.625 404.222656 C 530.894531 404.820312 530.140625 405.382812 529.355469 405.90625 C 528.574219 406.429688 527.765625 406.914062 526.933594 407.359375 C 526.101562 407.800781 525.25 408.203125 524.382812 408.566406 C 523.511719 408.925781 522.625 409.242188 521.722656 409.515625 C 520.820312 409.792969 519.90625 410.019531 518.980469 410.203125 C 518.058594 410.386719 517.125 410.527344 516.1875 410.617188 C 515.25 410.710938 514.308594 410.757812 513.367188 410.757812 C 512.425781 410.757812 511.484375 410.710938 510.546875 410.617188 C 509.609375 410.527344 508.679688 410.386719 507.753906 410.203125 C 506.828125 410.019531 505.914062 409.792969 505.015625 409.515625 C 504.113281 409.242188 503.226562 408.925781 502.355469 408.566406 C 501.484375 408.203125 500.632812 407.800781 499.800781 407.359375 C 498.96875 406.914062 498.164062 406.429688 497.378906 405.90625 C 496.59375 405.382812 495.839844 404.820312 495.109375 404.222656 C 494.382812 403.625 493.683594 402.992188 493.019531 402.324219 C 492.351562 401.660156 491.71875 400.960938 491.121094 400.234375 C 490.523438 399.503906 489.960938 398.746094 489.4375 397.964844 C 488.914062 397.179688 488.429688 396.371094 487.988281 395.542969 C 487.542969 394.710938 487.140625 393.859375 486.78125 392.988281 C 486.417969 392.117188 486.101562 391.230469 485.828125 390.328125 C 485.554688 389.425781 485.324219 388.511719 485.140625 387.585938 C 484.957031 386.664062 484.820312 385.730469 484.726562 384.792969 C 484.636719 383.855469 484.589844 382.914062 484.589844 381.972656 C 484.589844 381.03125 484.636719 380.089844 484.726562 379.152344 C 484.820312 378.210938 484.957031 377.28125 485.140625 376.355469 C 485.324219 375.433594 485.554688 374.519531 485.828125 373.617188 C 486.101562 372.714844 486.417969 371.828125 486.78125 370.957031 C 487.140625 370.085938 487.542969 369.234375 487.988281 368.402344 C 488.429688 367.570312 488.914062 366.765625 489.4375 365.980469 C 489.960938 365.195312 490.523438 364.441406 491.121094 363.710938 C 491.71875 362.984375 492.351562 362.285156 493.019531 361.617188 C 493.683594 360.953125 494.382812 360.320312 495.109375 359.722656 C 495.839844 359.125 496.59375 358.5625 497.378906 358.039062 C 498.164062 357.515625 498.96875 357.03125 499.800781 356.585938 C 500.632812 356.140625 501.484375 355.738281 502.355469 355.378906 C 503.226562 355.019531 504.113281 354.699219 505.015625 354.425781 C 505.914062 354.152344 506.828125 353.925781 507.753906 353.742188 C 508.679688 353.558594 509.609375 353.417969 510.546875 353.324219 C 511.484375 353.234375 512.425781 353.1875 513.367188 353.1875 C 514.308594 353.1875 515.25 353.234375 516.1875 353.324219 C 517.125 353.417969 518.058594 353.558594 518.980469 353.742188 C 519.90625 353.925781 520.820312 354.152344 521.722656 354.425781 C 522.625 354.699219 523.511719 355.019531 524.382812 355.378906 C 525.25 355.738281 526.101562 356.140625 526.933594 356.585938 C 527.765625 357.03125 528.574219 357.515625 529.355469 358.039062 C 530.140625 358.5625 530.894531 359.125 531.625 359.722656 C 532.351562 360.320312 533.050781 360.953125 533.71875 361.617188 C 534.382812 362.285156 535.015625 362.984375 535.613281 363.710938 C 536.210938 364.441406 536.773438 365.195312 537.296875 365.980469 C 537.820312 366.765625 538.304688 367.570312 538.75 368.402344 C 539.191406 369.234375 539.59375 370.085938 539.957031 370.957031 C 540.316406 371.828125 540.632812 372.714844 540.90625 373.617188 C 541.179688 374.519531 541.410156 375.433594 541.59375 376.355469 C 541.777344 377.28125 541.914062 378.210938 542.007812 379.152344 C 542.101562 380.089844 542.148438 381.03125 542.148438 381.972656 Z M 542.148438 381.972656"/><path fill="#292F33" d="M 484.03125 434.140625 C 482.582031 430.613281 478.257812 428.027344 473.078125 428.027344 C 467.898438 428.027344 463.570312 430.613281 462.125 434.140625 C 458.488281 435.15625 455.808594 438.460938 455.808594 442.421875 C 455.808594 447.1875 459.671875 451.054688 464.445312 451.054688 C 468.214844 451.054688 471.386719 448.625 472.558594 445.257812 C 472.730469 445.265625 472.898438 445.296875 473.078125 445.296875 C 473.253906 445.296875 473.421875 445.265625 473.59375 445.257812 C 474.773438 448.625 477.945312 451.054688 481.710938 451.054688 C 486.476562 451.054688 490.34375 447.1875 490.34375 442.421875 C 490.34375 438.460938 487.664062 435.160156 484.03125 434.140625 Z M 484.03125 434.140625"/></svg>