<svg xmlns="http://www.w3.org/2000/svg" width="1440" viewBox="0 0 1440 810" height="810" version="1.0"><defs><clipPath id="a"><path d="M 622.925781 307.925781 L 817.074219 307.925781 L 817.074219 502.074219 L 622.925781 502.074219 Z M 622.925781 307.925781"/></clipPath><clipPath id="b"><path d="M 864.882812 307.925781 L 1059.035156 307.925781 L 1059.035156 502.074219 L 864.882812 502.074219 Z M 864.882812 307.925781"/></clipPath><clipPath id="c"><path d="M 864.882812 480 L 1059.035156 480 L 1059.035156 502.074219 L 864.882812 502.074219 Z M 864.882812 480"/></clipPath><clipPath id="d"><path d="M 380.964844 307.925781 L 575.117188 307.925781 L 575.117188 502.074219 L 380.964844 502.074219 Z M 380.964844 307.925781"/></clipPath></defs><g clip-path="url(#a)"><path fill="#FFCC4D" d="M 817.074219 405 C 817.074219 458.613281 773.613281 502.074219 720 502.074219 C 666.386719 502.074219 622.925781 458.613281 622.925781 405 C 622.925781 351.386719 666.386719 307.925781 720 307.925781 C 773.613281 307.925781 817.074219 351.386719 817.074219 405"/></g><path fill="#664500" d="M 720 423.875 C 669.667969 423.875 663.453125 468.929688 663.394531 469.382812 C 663.28125 470.304688 663.640625 471.214844 664.359375 471.804688 C 664.84375 472.203125 665.453125 472.414062 666.070312 472.414062 C 666.355469 472.414062 666.640625 472.367188 666.921875 472.277344 C 667.238281 472.171875 699.105469 461.628906 720 461.628906 C 750.175781 461.628906 772.554688 472.050781 772.777344 472.15625 C 773.644531 472.570312 774.707031 472.480469 775.511719 471.902344 C 776.304688 471.324219 776.730469 470.359375 776.605469 469.378906 C 776.546875 468.929688 770.332031 423.875 720 423.875 Z M 779.324219 361.855469 C 749.371094 361.855469 737.246094 338.304688 736.746094 337.300781 C 735.414062 334.636719 736.492188 331.394531 739.15625 330.0625 C 741.816406 328.734375 745.046875 329.804688 746.382812 332.453125 C 746.789062 333.238281 756.203125 351.070312 779.324219 351.070312 C 782.304688 351.070312 784.71875 353.484375 784.71875 356.460938 C 784.71875 359.4375 782.304688 361.855469 779.324219 361.855469 Z M 660.675781 361.855469 C 657.699219 361.855469 655.28125 359.4375 655.28125 356.460938 C 655.28125 353.484375 657.699219 351.070312 660.675781 351.070312 C 688.089844 351.070312 693.011719 334.242188 693.210938 333.523438 C 693.996094 330.675781 696.945312 328.953125 699.785156 329.703125 C 702.644531 330.453125 704.375 333.332031 703.660156 336.199219 C 703.394531 337.246094 696.832031 361.855469 660.675781 361.855469 Z M 660.675781 361.855469"/><path fill="#CCD6DD" d="M 720 431.964844 C 741.574219 431.964844 752.359375 442.75 752.359375 442.75 L 687.640625 442.75 C 687.640625 442.75 698.425781 431.964844 720 431.964844 Z M 720 431.964844"/><path fill="#664500" d="M 655.289062 410.394531 C 653.648438 410.394531 652.03125 409.648438 650.96875 408.234375 C 649.179688 405.859375 649.664062 402.476562 652.046875 400.691406 C 652.816406 400.113281 667.960938 388.917969 689.023438 384.871094 C 675.675781 378.179688 660.859375 378.035156 660.671875 378.035156 C 657.695312 378.023438 655.28125 375.609375 655.289062 372.628906 C 655.289062 369.660156 657.699219 367.25 660.675781 367.25 C 661.867188 367.25 690.078125 367.453125 707.632812 385.007812 C 709.175781 386.550781 709.640625 388.871094 708.804688 390.886719 C 707.96875 392.898438 706 394.214844 703.820312 394.214844 C 678.941406 394.214844 658.71875 409.164062 658.519531 409.316406 C 657.546875 410.042969 656.410156 410.394531 655.289062 410.394531 Z M 784.710938 410.386719 C 783.589844 410.386719 782.457031 410.042969 781.488281 409.320312 C 781.28125 409.164062 760.933594 394.214844 736.179688 394.214844 C 734 394.214844 732.027344 392.898438 731.195312 390.886719 C 730.359375 388.871094 730.824219 386.550781 732.367188 385.007812 C 749.925781 367.453125 778.132812 367.25 779.324219 367.25 C 782.300781 367.25 784.707031 369.660156 784.710938 372.628906 C 784.71875 375.609375 782.304688 378.023438 779.335938 378.035156 C 779.140625 378.035156 764.324219 378.179688 750.976562 384.871094 C 772.039062 388.917969 787.183594 400.113281 787.949219 400.691406 C 790.324219 402.476562 790.8125 405.847656 789.03125 408.230469 C 787.972656 409.636719 786.355469 410.386719 784.710938 410.386719 Z M 784.710938 410.386719"/><g clip-path="url(#b)"><path fill="#FFCC4D" d="M 1059.035156 405 C 1059.035156 458.613281 1015.570312 502.074219 961.957031 502.074219 C 908.34375 502.074219 864.882812 458.613281 864.882812 405 C 864.882812 351.386719 908.34375 307.925781 961.957031 307.925781 C 1015.570312 307.925781 1059.035156 351.386719 1059.035156 405"/></g><path fill="#664500" d="M 983.53125 453.539062 C 983.53125 468.4375 973.871094 469.71875 961.957031 469.71875 C 950.039062 469.71875 940.386719 468.4375 940.386719 453.539062 C 940.386719 438.648438 950.039062 421.179688 961.957031 421.179688 C 973.871094 421.179688 983.53125 438.648438 983.53125 453.539062 Z M 1026.675781 388.820312 C 1026.007812 388.820312 1025.328125 388.695312 1024.675781 388.433594 C 996.472656 377.15625 984.917969 360.167969 984.4375 359.449219 C 982.78125 356.96875 983.449219 353.621094 985.929688 351.96875 C 988.40625 350.320312 991.738281 350.976562 993.398438 353.449219 C 993.503906 353.59375 1003.808594 368.46875 1028.675781 378.410156 C 1031.441406 379.523438 1032.789062 382.65625 1031.683594 385.421875 C 1030.839844 387.539062 1028.8125 388.820312 1026.675781 388.820312 Z M 897.242188 388.820312 C 895.097656 388.820312 893.078125 387.539062 892.230469 385.429688 C 891.125 382.660156 892.46875 379.523438 895.234375 378.417969 C 920.105469 368.472656 930.414062 353.597656 930.515625 353.453125 C 932.175781 350.992188 935.527344 350.339844 937.996094 351.996094 C 940.460938 353.65625 941.128906 356.984375 939.480469 359.457031 C 939 360.171875 927.441406 377.160156 899.246094 388.4375 C 898.589844 388.695312 897.910156 388.820312 897.242188 388.820312 Z M 897.242188 388.820312"/><path fill="#5DADEC" d="M 994.316406 394.214844 L 1015.890625 394.214844 L 1015.890625 496.683594 L 994.316406 496.433594 Z M 908.027344 496.683594 L 929.597656 496.433594 L 929.597656 394.214844 L 908.027344 394.214844 Z M 908.027344 496.683594"/><path fill="#664500" d="M 945.773438 405 C 944.964844 405 944.140625 404.816406 943.367188 404.433594 C 924.425781 394.964844 905.238281 404.335938 905.050781 404.433594 C 902.378906 405.777344 899.144531 404.683594 897.8125 402.023438 C 896.480469 399.359375 897.558594 396.117188 900.222656 394.785156 C 901.203125 394.300781 924.480469 382.9375 948.195312 394.785156 C 950.859375 396.117188 951.9375 399.359375 950.605469 402.023438 C 949.65625 403.910156 947.753906 405 945.773438 405 Z M 1021.277344 405 C 1020.46875 405 1019.640625 404.816406 1018.871094 404.433594 C 999.925781 394.964844 980.742188 404.335938 980.554688 404.433594 C 977.890625 405.769531 974.652344 404.6875 973.316406 402.023438 C 971.984375 399.359375 973.0625 396.117188 975.726562 394.785156 C 976.707031 394.300781 1000 382.941406 1023.699219 394.785156 C 1026.363281 396.117188 1027.441406 399.359375 1026.109375 402.023438 C 1025.160156 403.910156 1023.253906 405 1021.277344 405 Z M 1021.277344 405"/><g clip-path="url(#c)"><path fill="#5DADEC" d="M 1059.035156 491.289062 C 1059.035156 491.464844 1058.996094 491.644531 1058.917969 491.820312 C 1058.839844 491.996094 1058.722656 492.171875 1058.566406 492.347656 C 1058.410156 492.523438 1058.214844 492.699219 1057.984375 492.871094 C 1057.75 493.046875 1057.476562 493.222656 1057.167969 493.394531 C 1056.859375 493.566406 1056.511719 493.738281 1056.125 493.910156 C 1055.738281 494.082031 1055.316406 494.25 1054.855469 494.421875 C 1054.390625 494.589844 1053.894531 494.757812 1053.359375 494.921875 C 1052.824219 495.089844 1052.253906 495.253906 1051.644531 495.417969 C 1051.035156 495.582031 1050.390625 495.742188 1049.714844 495.902344 C 1049.035156 496.0625 1048.320312 496.21875 1047.570312 496.375 C 1046.820312 496.53125 1046.039062 496.683594 1045.222656 496.835938 C 1044.40625 496.984375 1043.554688 497.136719 1042.671875 497.28125 C 1041.789062 497.429688 1040.875 497.574219 1039.929688 497.714844 C 1038.984375 497.855469 1038.007812 497.996094 1037 498.132812 C 1035.992188 498.269531 1034.953125 498.402344 1033.886719 498.535156 C 1032.820312 498.664062 1031.722656 498.792969 1030.601562 498.917969 C 1029.476562 499.042969 1028.328125 499.164062 1027.148438 499.28125 C 1025.972656 499.398438 1024.769531 499.515625 1023.542969 499.628906 C 1022.3125 499.738281 1021.0625 499.847656 1019.785156 499.953125 C 1018.507812 500.058594 1017.210938 500.160156 1015.890625 500.257812 C 1014.570312 500.355469 1013.226562 500.449219 1011.863281 500.542969 C 1010.503906 500.632812 1009.121094 500.71875 1007.71875 500.800781 C 1006.316406 500.886719 1004.898438 500.964844 1003.464844 501.039062 C 1002.027344 501.117188 1000.574219 501.1875 999.105469 501.253906 C 997.640625 501.324219 996.15625 501.386719 994.660156 501.445312 C 993.164062 501.503906 991.65625 501.558594 990.136719 501.613281 C 988.617188 501.664062 987.085938 501.710938 985.546875 501.753906 C 984.003906 501.796875 982.453125 501.835938 980.894531 501.867188 C 979.339844 501.902344 977.773438 501.933594 976.203125 501.960938 C 974.628906 501.984375 973.054688 502.007812 971.472656 502.023438 C 969.890625 502.042969 968.308594 502.054688 966.722656 502.0625 C 965.132812 502.070312 963.546875 502.074219 961.957031 502.074219 C 960.367188 502.074219 958.78125 502.070312 957.195312 502.0625 C 955.609375 502.054688 954.023438 502.042969 952.441406 502.023438 C 950.863281 502.007812 949.285156 501.984375 947.714844 501.960938 C 946.140625 501.933594 944.578125 501.902344 943.019531 501.867188 C 941.460938 501.835938 939.910156 501.796875 938.371094 501.753906 C 936.828125 501.710938 935.296875 501.664062 933.777344 501.613281 C 932.257812 501.558594 930.75 501.503906 929.253906 501.445312 C 927.757812 501.386719 926.277344 501.324219 924.808594 501.253906 C 923.339844 501.1875 921.890625 501.117188 920.453125 501.039062 C 919.015625 500.964844 917.597656 500.886719 916.195312 500.800781 C 914.796875 500.71875 913.414062 500.632812 912.050781 500.542969 C 910.6875 500.449219 909.347656 500.355469 908.023438 500.257812 C 906.703125 500.160156 905.40625 500.058594 904.128906 499.953125 C 902.855469 499.847656 901.601562 499.738281 900.375 499.628906 C 899.144531 499.515625 897.941406 499.398438 896.765625 499.28125 C 895.589844 499.164062 894.4375 499.042969 893.316406 498.917969 C 892.191406 498.792969 891.097656 498.664062 890.03125 498.535156 C 888.960938 498.402344 887.925781 498.269531 886.917969 498.132812 C 885.910156 497.996094 884.933594 497.855469 883.984375 497.714844 C 883.039062 497.574219 882.125 497.429688 881.242188 497.28125 C 880.359375 497.136719 879.511719 496.984375 878.691406 496.835938 C 877.875 496.683594 877.09375 496.53125 876.34375 496.375 C 875.59375 496.21875 874.882812 496.0625 874.203125 495.902344 C 873.523438 495.742188 872.878906 495.582031 872.269531 495.417969 C 871.664062 495.253906 871.09375 495.089844 870.554688 494.921875 C 870.019531 494.757812 869.523438 494.589844 869.0625 494.421875 C 868.601562 494.25 868.175781 494.082031 867.792969 493.910156 C 867.40625 493.738281 867.058594 493.566406 866.746094 493.394531 C 866.4375 493.222656 866.164062 493.046875 865.933594 492.871094 C 865.699219 492.699219 865.503906 492.523438 865.347656 492.347656 C 865.195312 492.171875 865.078125 491.996094 865 491.820312 C 864.921875 491.644531 864.882812 491.464844 864.882812 491.289062 C 864.882812 491.113281 864.921875 490.9375 865 490.761719 C 865.078125 490.585938 865.195312 490.40625 865.347656 490.234375 C 865.503906 490.058594 865.699219 489.882812 865.933594 489.707031 C 866.164062 489.53125 866.4375 489.359375 866.746094 489.183594 C 867.058594 489.011719 867.40625 488.839844 867.792969 488.667969 C 868.175781 488.496094 868.601562 488.328125 869.0625 488.160156 C 869.523438 487.988281 870.019531 487.820312 870.554688 487.65625 C 871.09375 487.488281 871.664062 487.324219 872.269531 487.160156 C 872.878906 487 873.523438 486.835938 874.203125 486.679688 C 874.882812 486.519531 875.59375 486.359375 876.34375 486.203125 C 877.09375 486.050781 877.875 485.894531 878.691406 485.746094 C 879.511719 485.59375 880.359375 485.445312 881.242188 485.296875 C 882.125 485.152344 883.039062 485.007812 883.984375 484.863281 C 884.933594 484.722656 885.910156 484.582031 886.917969 484.445312 C 887.925781 484.308594 888.960938 484.175781 890.03125 484.046875 C 891.097656 483.914062 892.191406 483.789062 893.316406 483.664062 C 894.4375 483.539062 895.589844 483.417969 896.765625 483.296875 C 897.941406 483.179688 899.144531 483.0625 900.375 482.953125 C 901.601562 482.839844 902.855469 482.730469 904.128906 482.625 C 905.40625 482.519531 906.703125 482.417969 908.023438 482.320312 C 909.347656 482.222656 910.6875 482.128906 912.050781 482.039062 C 913.414062 481.949219 914.796875 481.859375 916.195312 481.777344 C 917.597656 481.695312 919.015625 481.613281 920.453125 481.539062 C 921.890625 481.464844 923.339844 481.390625 924.808594 481.324219 C 926.277344 481.257812 927.757812 481.195312 929.253906 481.132812 C 930.75 481.074219 932.257812 481.019531 933.777344 480.96875 C 935.296875 480.917969 936.828125 480.871094 938.371094 480.828125 C 939.910156 480.785156 941.460938 480.746094 943.019531 480.710938 C 944.578125 480.675781 946.140625 480.644531 947.714844 480.621094 C 949.285156 480.59375 950.863281 480.574219 952.441406 480.554688 C 954.023438 480.539062 955.609375 480.523438 957.195312 480.515625 C 958.78125 480.507812 960.367188 480.503906 961.957031 480.503906 C 963.546875 480.503906 965.132812 480.507812 966.722656 480.515625 C 968.308594 480.523438 969.890625 480.539062 971.472656 480.554688 C 973.054688 480.574219 974.628906 480.59375 976.203125 480.621094 C 977.773438 480.644531 979.339844 480.675781 980.894531 480.710938 C 982.453125 480.746094 984.003906 480.785156 985.546875 480.828125 C 987.085938 480.871094 988.617188 480.917969 990.136719 480.96875 C 991.65625 481.019531 993.164062 481.074219 994.660156 481.132812 C 996.15625 481.195312 997.640625 481.257812 999.105469 481.324219 C 1000.574219 481.390625 1002.027344 481.464844 1003.464844 481.539062 C 1004.898438 481.613281 1006.316406 481.695312 1007.71875 481.777344 C 1009.121094 481.859375 1010.503906 481.949219 1011.863281 482.039062 C 1013.226562 482.128906 1014.570312 482.222656 1015.890625 482.320312 C 1017.210938 482.417969 1018.507812 482.519531 1019.785156 482.625 C 1021.0625 482.730469 1022.3125 482.839844 1023.542969 482.953125 C 1024.769531 483.0625 1025.972656 483.179688 1027.148438 483.296875 C 1028.328125 483.417969 1029.476562 483.539062 1030.601562 483.664062 C 1031.722656 483.789062 1032.820312 483.914062 1033.886719 484.046875 C 1034.953125 484.175781 1035.992188 484.308594 1037 484.445312 C 1038.007812 484.582031 1038.984375 484.722656 1039.929688 484.863281 C 1040.875 485.007812 1041.789062 485.152344 1042.671875 485.296875 C 1043.554688 485.445312 1044.40625 485.59375 1045.222656 485.746094 C 1046.039062 485.894531 1046.820312 486.050781 1047.570312 486.207031 C 1048.320312 486.359375 1049.035156 486.519531 1049.714844 486.679688 C 1050.390625 486.835938 1051.035156 487 1051.644531 487.160156 C 1052.253906 487.324219 1052.824219 487.488281 1053.359375 487.65625 C 1053.894531 487.820312 1054.390625 487.988281 1054.855469 488.160156 C 1055.316406 488.328125 1055.738281 488.496094 1056.125 488.667969 C 1056.511719 488.839844 1056.859375 489.011719 1057.167969 489.183594 C 1057.476562 489.359375 1057.75 489.53125 1057.984375 489.707031 C 1058.214844 489.882812 1058.410156 490.058594 1058.566406 490.234375 C 1058.722656 490.40625 1058.839844 490.585938 1058.917969 490.761719 C 1058.996094 490.9375 1059.035156 491.113281 1059.035156 491.289062 Z M 1059.035156 491.289062"/></g><path fill="#E75A70" d="M 978.136719 453.539062 C 978.136719 454.246094 978.035156 454.949219 977.828125 455.640625 C 977.617188 456.335938 977.3125 457.011719 976.90625 457.664062 C 976.5 458.320312 976 458.941406 975.410156 459.53125 C 974.820312 460.121094 974.148438 460.664062 973.398438 461.164062 C 972.648438 461.664062 971.828125 462.113281 970.945312 462.507812 C 970.0625 462.898438 969.128906 463.230469 968.148438 463.503906 C 967.167969 463.773438 966.15625 463.980469 965.113281 464.117188 C 964.070312 464.253906 963.019531 464.324219 961.957031 464.324219 C 960.894531 464.324219 959.84375 464.253906 958.800781 464.117188 C 957.757812 463.980469 956.746094 463.773438 955.765625 463.503906 C 954.785156 463.230469 953.851562 462.898438 952.96875 462.507812 C 952.085938 462.113281 951.269531 461.664062 950.515625 461.164062 C 949.765625 460.664062 949.09375 460.121094 948.503906 459.53125 C 947.914062 458.941406 947.417969 458.320312 947.011719 457.664062 C 946.601562 457.011719 946.296875 456.335938 946.089844 455.640625 C 945.882812 454.949219 945.777344 454.246094 945.777344 453.539062 C 945.777344 452.828125 945.882812 452.128906 946.089844 451.433594 C 946.296875 450.738281 946.601562 450.066406 947.011719 449.410156 C 947.417969 448.757812 947.914062 448.132812 948.503906 447.546875 C 949.09375 446.957031 949.765625 446.410156 950.515625 445.910156 C 951.269531 445.410156 952.085938 444.964844 952.96875 444.570312 C 953.851562 444.175781 954.785156 443.84375 955.765625 443.574219 C 956.746094 443.300781 957.757812 443.097656 958.800781 442.960938 C 959.84375 442.820312 960.894531 442.75 961.957031 442.75 C 963.019531 442.75 964.070312 442.820312 965.113281 442.960938 C 966.15625 443.097656 967.167969 443.300781 968.148438 443.574219 C 969.128906 443.84375 970.0625 444.175781 970.945312 444.570312 C 971.828125 444.964844 972.648438 445.410156 973.398438 445.910156 C 974.148438 446.410156 974.820312 446.957031 975.410156 447.546875 C 976 448.132812 976.5 448.757812 976.90625 449.410156 C 977.3125 450.066406 977.617188 450.738281 977.828125 451.433594 C 978.035156 452.128906 978.136719 452.828125 978.136719 453.539062 Z M 978.136719 453.539062"/><g clip-path="url(#d)"><path fill="#FFCC4D" d="M 575.117188 405 C 575.117188 458.613281 531.65625 502.074219 478.042969 502.074219 C 424.429688 502.074219 380.964844 458.613281 380.964844 405 C 380.964844 351.386719 424.429688 307.925781 478.042969 307.925781 C 531.65625 307.925781 575.117188 351.386719 575.117188 405"/></g><path fill="#664500" d="M 507.625 463.671875 C 507.5625 463.433594 501.449219 440.054688 478.042969 440.054688 C 454.636719 440.054688 448.519531 463.433594 448.460938 463.671875 C 448.175781 464.820312 448.699219 465.996094 449.710938 466.605469 C 450.726562 467.210938 452.046875 467.070312 452.925781 466.28125 C 452.976562 466.238281 458.390625 461.628906 478.042969 461.628906 C 497.402344 461.628906 502.941406 466.105469 503.152344 466.28125 C 503.664062 466.765625 504.332031 467.019531 505.007812 467.019531 C 505.460938 467.019531 505.917969 466.90625 506.335938 466.675781 C 507.390625 466.070312 507.921875 464.847656 507.625 463.671875 Z M 537.367188 372.640625 C 507.414062 372.640625 495.289062 349.089844 494.789062 348.085938 C 493.457031 345.421875 494.535156 342.179688 497.199219 340.847656 C 499.855469 339.515625 503.085938 340.589844 504.425781 343.238281 C 504.828125 344.027344 514.246094 361.855469 537.367188 361.855469 C 540.347656 361.855469 542.757812 364.269531 542.757812 367.25 C 542.757812 370.226562 540.347656 372.640625 537.367188 372.640625 Z M 418.71875 372.640625 C 415.742188 372.640625 413.324219 370.226562 413.324219 367.25 C 413.324219 364.269531 415.742188 361.855469 418.71875 361.855469 C 446.132812 361.855469 451.054688 345.027344 451.253906 344.3125 C 452.035156 341.464844 454.988281 339.738281 457.828125 340.488281 C 460.6875 341.238281 462.417969 344.117188 461.699219 346.988281 C 461.4375 348.03125 454.875 372.640625 418.71875 372.640625 Z M 418.71875 372.640625"/><path fill="#664500" d="M 459.167969 396.910156 C 459.167969 397.527344 459.144531 398.144531 459.101562 398.761719 C 459.058594 399.375 458.992188 399.988281 458.90625 400.59375 C 458.820312 401.199219 458.714844 401.796875 458.585938 402.390625 C 458.457031 402.980469 458.308594 403.5625 458.140625 404.132812 C 457.972656 404.703125 457.78125 405.261719 457.574219 405.808594 C 457.367188 406.355469 457.140625 406.882812 456.894531 407.398438 C 456.648438 407.910156 456.386719 408.40625 456.105469 408.886719 C 455.824219 409.363281 455.53125 409.820312 455.21875 410.257812 C 454.90625 410.695312 454.578125 411.109375 454.238281 411.5 C 453.894531 411.894531 453.542969 412.261719 453.175781 412.605469 C 452.808594 412.949219 452.429688 413.265625 452.039062 413.558594 C 451.648438 413.847656 451.25 414.113281 450.84375 414.347656 C 450.433594 414.585938 450.019531 414.792969 449.597656 414.972656 C 449.175781 415.152344 448.746094 415.304688 448.3125 415.421875 C 447.878906 415.542969 447.445312 415.632812 447.003906 415.695312 C 446.566406 415.757812 446.125 415.785156 445.683594 415.785156 C 445.242188 415.785156 444.800781 415.757812 444.363281 415.695312 C 443.921875 415.632812 443.484375 415.542969 443.054688 415.421875 C 442.621094 415.304688 442.191406 415.152344 441.769531 414.972656 C 441.347656 414.792969 440.933594 414.585938 440.523438 414.347656 C 440.117188 414.113281 439.71875 413.847656 439.328125 413.558594 C 438.9375 413.265625 438.558594 412.949219 438.191406 412.605469 C 437.824219 412.261719 437.472656 411.894531 437.128906 411.5 C 436.789062 411.109375 436.460938 410.695312 436.148438 410.257812 C 435.835938 409.820312 435.542969 409.363281 435.261719 408.886719 C 434.980469 408.40625 434.71875 407.910156 434.472656 407.398438 C 434.226562 406.882812 434 406.355469 433.792969 405.808594 C 433.585938 405.261719 433.394531 404.703125 433.226562 404.132812 C 433.058594 403.5625 432.910156 402.980469 432.78125 402.390625 C 432.652344 401.796875 432.546875 401.199219 432.460938 400.59375 C 432.375 399.988281 432.308594 399.375 432.265625 398.761719 C 432.222656 398.144531 432.199219 397.527344 432.199219 396.910156 C 432.199219 396.292969 432.222656 395.675781 432.265625 395.058594 C 432.308594 394.445312 432.375 393.835938 432.460938 393.226562 C 432.546875 392.621094 432.652344 392.023438 432.78125 391.429688 C 432.910156 390.839844 433.058594 390.257812 433.226562 389.6875 C 433.394531 389.117188 433.585938 388.558594 433.792969 388.011719 C 434 387.46875 434.226562 386.9375 434.472656 386.421875 C 434.71875 385.910156 434.980469 385.414062 435.261719 384.9375 C 435.542969 384.457031 435.835938 384 436.148438 383.5625 C 436.460938 383.125 436.789062 382.710938 437.128906 382.320312 C 437.472656 381.925781 437.824219 381.558594 438.191406 381.214844 C 438.558594 380.871094 438.9375 380.554688 439.328125 380.261719 C 439.71875 379.972656 440.117188 379.707031 440.523438 379.472656 C 440.933594 379.234375 441.347656 379.027344 441.769531 378.847656 C 442.191406 378.667969 442.621094 378.519531 443.054688 378.398438 C 443.484375 378.277344 443.921875 378.1875 444.363281 378.125 C 444.800781 378.066406 445.242188 378.035156 445.683594 378.035156 C 446.125 378.035156 446.566406 378.066406 447.003906 378.125 C 447.445312 378.1875 447.878906 378.277344 448.3125 378.398438 C 448.746094 378.519531 449.175781 378.667969 449.597656 378.847656 C 450.019531 379.027344 450.433594 379.234375 450.84375 379.472656 C 451.25 379.707031 451.648438 379.972656 452.039062 380.261719 C 452.429688 380.554688 452.808594 380.871094 453.175781 381.214844 C 453.542969 381.558594 453.894531 381.925781 454.238281 382.320312 C 454.578125 382.710938 454.90625 383.125 455.21875 383.5625 C 455.53125 384 455.824219 384.457031 456.105469 384.9375 C 456.386719 385.414062 456.648438 385.910156 456.894531 386.421875 C 457.140625 386.9375 457.367188 387.46875 457.574219 388.011719 C 457.78125 388.558594 457.972656 389.117188 458.140625 389.6875 C 458.308594 390.257812 458.457031 390.839844 458.585938 391.429688 C 458.714844 392.023438 458.820312 392.621094 458.90625 393.226562 C 458.992188 393.835938 459.058594 394.445312 459.101562 395.058594 C 459.144531 395.675781 459.167969 396.292969 459.167969 396.910156 Z M 459.167969 396.910156"/><path fill="#664500" d="M 523.882812 396.910156 C 523.882812 397.527344 523.863281 398.144531 523.820312 398.761719 C 523.773438 399.375 523.710938 399.988281 523.625 400.59375 C 523.539062 401.199219 523.429688 401.796875 523.304688 402.390625 C 523.175781 402.980469 523.027344 403.5625 522.855469 404.132812 C 522.6875 404.703125 522.5 405.261719 522.292969 405.808594 C 522.082031 406.355469 521.855469 406.882812 521.609375 407.398438 C 521.367188 407.910156 521.101562 408.40625 520.824219 408.886719 C 520.542969 409.363281 520.246094 409.820312 519.933594 410.257812 C 519.621094 410.695312 519.296875 411.109375 518.953125 411.5 C 518.613281 411.894531 518.257812 412.261719 517.890625 412.605469 C 517.523438 412.949219 517.144531 413.265625 516.757812 413.558594 C 516.367188 413.847656 515.96875 414.113281 515.558594 414.347656 C 515.152344 414.585938 514.738281 414.792969 514.316406 414.972656 C 513.890625 415.152344 513.464844 415.304688 513.03125 415.421875 C 512.597656 415.542969 512.160156 415.632812 511.722656 415.695312 C 511.28125 415.757812 510.84375 415.785156 510.402344 415.785156 C 509.960938 415.785156 509.519531 415.757812 509.078125 415.695312 C 508.640625 415.632812 508.203125 415.542969 507.769531 415.421875 C 507.335938 415.304688 506.910156 415.152344 506.488281 414.972656 C 506.0625 414.792969 505.648438 414.585938 505.242188 414.347656 C 504.832031 414.113281 504.433594 413.847656 504.046875 413.558594 C 503.65625 413.265625 503.277344 412.949219 502.910156 412.605469 C 502.542969 412.261719 502.1875 411.894531 501.847656 411.5 C 501.507812 411.109375 501.179688 410.695312 500.867188 410.257812 C 500.554688 409.820312 500.257812 409.363281 499.976562 408.886719 C 499.699219 408.40625 499.4375 407.910156 499.191406 407.398438 C 498.945312 406.882812 498.71875 406.355469 498.511719 405.808594 C 498.300781 405.261719 498.113281 404.703125 497.945312 404.132812 C 497.773438 403.5625 497.625 402.980469 497.5 402.390625 C 497.371094 401.796875 497.261719 401.199219 497.175781 400.59375 C 497.089844 399.988281 497.027344 399.375 496.984375 398.761719 C 496.941406 398.144531 496.917969 397.527344 496.917969 396.910156 C 496.917969 396.292969 496.941406 395.675781 496.984375 395.058594 C 497.027344 394.445312 497.089844 393.835938 497.175781 393.226562 C 497.261719 392.621094 497.371094 392.023438 497.5 391.429688 C 497.625 390.839844 497.773438 390.257812 497.945312 389.6875 C 498.113281 389.117188 498.300781 388.558594 498.511719 388.011719 C 498.71875 387.46875 498.945312 386.9375 499.191406 386.421875 C 499.4375 385.910156 499.699219 385.414062 499.976562 384.9375 C 500.257812 384.457031 500.554688 384 500.867188 383.5625 C 501.179688 383.125 501.507812 382.710938 501.847656 382.320312 C 502.1875 381.925781 502.542969 381.558594 502.910156 381.214844 C 503.277344 380.871094 503.65625 380.554688 504.046875 380.261719 C 504.433594 379.972656 504.832031 379.707031 505.242188 379.472656 C 505.648438 379.234375 506.0625 379.027344 506.488281 378.847656 C 506.910156 378.667969 507.335938 378.519531 507.769531 378.398438 C 508.203125 378.277344 508.640625 378.1875 509.078125 378.125 C 509.519531 378.066406 509.960938 378.035156 510.402344 378.035156 C 510.84375 378.035156 511.28125 378.066406 511.722656 378.125 C 512.160156 378.1875 512.597656 378.277344 513.03125 378.398438 C 513.464844 378.519531 513.890625 378.667969 514.316406 378.847656 C 514.738281 379.027344 515.152344 379.234375 515.558594 379.472656 C 515.96875 379.707031 516.367188 379.972656 516.757812 380.261719 C 517.144531 380.554688 517.523438 380.871094 517.890625 381.214844 C 518.257812 381.558594 518.613281 381.925781 518.953125 382.320312 C 519.296875 382.710938 519.621094 383.125 519.933594 383.5625 C 520.246094 384 520.542969 384.457031 520.824219 384.9375 C 521.101562 385.414062 521.367188 385.910156 521.609375 386.421875 C 521.855469 386.9375 522.082031 387.46875 522.292969 388.011719 C 522.5 388.558594 522.6875 389.117188 522.855469 389.6875 C 523.027344 390.257812 523.175781 390.839844 523.304688 391.429688 C 523.429688 392.023438 523.539062 392.621094 523.625 393.226562 C 523.710938 393.835938 523.773438 394.445312 523.820312 395.058594 C 523.863281 395.675781 523.882812 396.292969 523.882812 396.910156 Z M 523.882812 396.910156"/></svg>